<svg version="1.1" id="Layer_1" xmlns="http://www.w3.org/2000/svg" xmlns:xlink="http://www.w3.org/1999/xlink" x="0px" y="0px"
	 width="120" height="60" viewBox="0 0 336 512" enable-background="new 0 0 336 512" xml:space="preserve">
<path fill="#000000" opacity="1.000000" stroke="none" 
	d="
M3.500000,1.000000 
	C1.731233,6.326246 2.980713,12.012247 2.444680,17.512186 
	C1.816515,23.957436 2.146474,30.493599 2.000011,36.988956 
	C1.854841,43.427021 2.037407,43.665112 8.666146,43.665958 
	C78.148628,43.674824 147.631104,43.662548 217.113586,43.684490 
	C256.768890,43.697014 296.424164,43.761848 336.539734,43.901566 
	C337.000000,57.354229 337.000000,70.708458 337.000000,84.531342 
	C335.098785,84.158485 333.078033,84.346558 331.088257,84.346382 
	C222.970551,84.336945 114.852837,84.333282 6.735135,84.348228 
	C5.082124,84.348457 3.429147,84.588112 1.388077,84.858017 
	C1.000000,58.156063 0.977475,31.312048 1.073481,4.468456 
	C1.077806,3.259099 -0.530436,0.504617 3.500000,1.000000 
M297.182068,63.696369 
	C297.538330,65.891800 297.668243,68.186638 299.937012,70.118790 
	C300.808014,68.175568 301.945007,66.778282 301.453064,64.565933 
	C298.944794,66.780327 298.192200,64.328049 297.006836,62.412235 
	C296.906921,61.633369 297.015259,60.753670 295.973785,60.367123 
	C293.681732,61.519131 294.786133,64.778046 292.568298,65.999565 
	C290.368225,65.094391 291.265381,62.243813 289.084991,60.623005 
	C290.217407,64.049706 289.927856,67.401573 292.383118,69.792213 
	C294.995728,67.923683 293.538513,63.830891 297.182068,63.696369 
M270.327789,64.179329 
	C270.862366,63.792042 271.486847,63.484676 271.915222,63.002934 
	C273.372559,61.364033 274.015564,59.549759 272.430725,57.642441 
	C270.644867,55.493187 268.206055,55.092552 265.630341,55.555298 
	C263.136932,56.003254 263.392456,58.091648 263.370239,59.897160 
	C263.331055,63.078491 263.359283,66.260651 263.359283,69.442467 
	C264.161072,65.720139 266.363647,64.499474 270.327789,64.179329 
M278.309814,69.101700 
	C280.186066,70.834557 282.241302,70.928329 284.131714,69.330650 
	C285.988220,67.761650 287.116821,65.745865 286.107178,63.180218 
	C285.762085,62.303436 285.641907,61.198231 284.408813,60.975060 
	C283.474243,61.877609 285.320251,63.236046 283.648041,64.202026 
	C282.556610,62.767845 279.489868,62.856033 280.574127,59.455868 
	C276.421661,61.733620 275.623474,64.711189 278.309814,69.101700 
M102.251175,65.067078 
	C104.780731,64.515831 104.541893,63.004276 103.336792,61.452469 
	C101.865112,59.557388 99.946091,58.803799 97.702049,60.200191 
	C96.030724,61.240204 95.258232,62.787258 95.355843,64.797478 
	C95.486847,67.495293 96.381035,69.572563 99.369026,70.263947 
	C98.009438,67.019325 98.009438,67.019325 102.251175,65.067078 
M121.259132,55.492584 
	C119.225212,55.630104 116.280411,54.416679 115.616974,57.117855 
	C114.603645,61.243519 113.972588,65.815659 116.259186,69.643105 
	C117.428688,71.600685 120.183617,70.689087 122.904327,70.166664 
	C120.304176,68.432289 116.814369,70.553246 116.061951,66.901527 
	C115.524605,64.293587 118.082565,63.994968 119.780548,62.831944 
	C117.760208,62.015877 115.871742,61.416542 116.197601,59.056206 
	C116.549683,56.505981 118.713432,56.928406 120.433777,56.585121 
	C121.053459,56.461472 122.170433,57.098522 122.179489,55.716457 
	C122.179886,55.656155 121.900398,55.594017 121.259132,55.492584 
M205.966583,62.805645 
	C205.132126,65.941307 206.737305,71.448578 199.522446,68.342804 
	C202.340820,72.067650 204.940842,69.517197 207.383316,69.738472 
	C208.089630,60.015415 207.143967,58.635712 201.145432,60.427784 
	C202.782211,61.090832 204.972656,59.954170 205.966583,62.805645 
M150.586319,60.841568 
	C152.952850,60.401012 153.885544,62.078987 154.736862,64.464241 
	C155.802948,57.088741 147.153168,61.671803 146.856232,56.464600 
	C146.160370,59.794834 146.317184,62.811581 147.622009,66.718925 
	C147.566605,63.840176 148.123322,62.156078 150.586319,60.841568 
M186.553146,65.308205 
	C188.690155,70.860023 190.064316,71.506210 194.499084,68.837280 
	C192.322876,69.488091 189.506058,69.988625 188.883286,67.640068 
	C188.233124,65.188179 187.846497,62.086521 191.222244,59.343605 
	C187.734375,60.514343 186.842194,62.353329 186.553146,65.308205 
M221.232773,69.051933 
	C222.245667,71.374420 224.057541,70.716537 225.707977,70.127556 
	C226.902618,69.701248 227.518600,68.588829 227.329147,67.340599 
	C226.725327,63.362091 222.573227,64.662918 220.243942,61.825371 
	C220.963882,65.960266 225.410294,64.685280 225.968826,67.760216 
	C224.968124,69.887146 223.273697,69.164215 221.232773,69.051933 
M307.504822,60.674202 
	C304.374268,65.893982 305.128937,68.428955 310.504272,70.274651 
	C310.051788,68.726311 307.132385,68.107521 307.887360,67.366287 
	C310.139435,65.155190 306.153534,61.870728 309.499786,60.232117 
	C308.908081,59.302662 308.467621,60.278809 307.504822,60.674202 
M177.545410,59.577045 
	C176.961090,59.199448 176.791290,58.027676 175.429672,58.713066 
	C177.578552,61.731209 178.562958,65.163979 179.263382,68.733818 
	C178.790512,65.815666 182.222549,62.317524 177.545410,59.577045 
M212.270233,62.249794 
	C212.270233,64.591461 212.270233,66.933136 212.270233,69.274803 
	C214.293015,66.134155 212.201309,61.851959 216.483124,59.697529 
	C214.699783,59.863739 213.174515,59.951653 212.270233,62.249794 
M76.432365,63.659401 
	C76.066513,63.187096 75.700668,62.714790 75.185837,62.050156 
	C73.799423,67.719604 74.674988,69.312096 79.718758,70.018890 
	C76.166862,69.072235 75.336235,66.992989 76.432365,63.659401 
M128.277405,69.358315 
	C129.145569,66.450287 128.863113,63.595791 127.995949,60.758419 
	C127.434875,63.613117 126.951935,66.451553 128.277405,69.358315 
M87.598984,68.198822 
	C90.179260,66.139061 87.046272,61.977455 90.632515,60.277771 
	C85.184334,60.908180 87.943344,65.016464 87.598984,68.198822 
M69.309158,61.527714 
	C70.154106,64.396370 64.709312,65.768463 67.050224,70.200134 
	C69.385941,66.482941 69.695267,63.323322 70.334152,60.319405 
	C70.497490,59.551418 69.805260,60.234653 69.588356,60.521267 
	C69.494156,60.645729 69.479080,60.830074 69.309158,61.527714 
M238.343781,68.736526 
	C238.572052,68.912331 238.788971,69.108643 239.038254,69.246445 
	C239.087418,69.273621 239.349304,69.087822 239.364700,68.979210 
	C239.759598,66.190475 239.980286,63.413147 238.261917,60.777279 
	C238.261917,63.224575 238.261917,65.671875 238.343781,68.736526 
M243.340988,64.762886 
	C243.585785,66.291183 242.768402,67.979729 244.284592,69.835754 
	C244.945541,66.754959 244.902512,64.186661 243.544540,61.632721 
	C243.478836,62.436077 243.413116,63.239429 243.340988,64.762886 
M57.492477,65.092186 
	C57.202412,64.958870 56.919487,64.802200 56.616936,64.709732 
	C56.546913,64.688324 56.315571,64.888359 56.317638,64.983025 
	C56.353249,66.614761 56.178631,68.347908 58.079868,69.212013 
	C60.548958,65.860085 60.548958,65.860085 57.492477,65.092186 
M133.902878,65.537186 
	C133.483780,63.054619 134.430588,61.231831 136.757965,60.075909 
	C131.935333,62.175640 131.424866,64.162880 134.915878,68.392700 
	C134.512390,67.284302 134.299011,66.698143 133.902878,65.537186 
z"/>
<path fill="#000000" opacity="1.000000" stroke="none" 
	d="
M1.000000,351.468658 
	C2.072355,354.140625 3.940656,356.119965 7.326269,357.290100 
	C12.491875,359.075500 17.084194,366.838501 16.185760,372.163788 
	C15.347530,377.132233 15.329762,382.073792 15.328148,387.043915 
	C15.327165,390.071625 14.688368,392.113495 11.005106,392.324646 
	C6.348706,392.591583 3.795698,396.009674 1.289637,399.826355 
	C1.000000,383.979095 1.000000,367.958221 1.000000,351.468658 
z"/>
<path fill="#000000" opacity="1.000000" stroke="none" 
	d="
M1.000000,414.468658 
	C4.886215,421.889709 8.985765,429.423828 4.724823,438.923737 
	C2.644571,443.561676 3.617490,449.428864 1.228706,454.699554 
	C1.000000,441.645782 1.000000,428.291534 1.000000,414.468658 
z"/>
<path fill="#000000" opacity="1.000000" stroke="none" 
	d="
M212.078964,285.411316 
	C209.360474,285.445160 206.776123,285.103546 209.721649,282.382385 
	C211.664536,280.587494 211.793411,278.742859 211.812119,276.633453 
	C211.875580,269.478790 211.849182,262.323364 211.860565,255.168228 
	C211.866531,251.423172 212.417923,247.521362 207.797028,244.631958 
	C215.294403,242.468506 221.857834,243.119827 229.651474,243.860764 
	C223.662659,248.104889 225.566223,253.565277 225.351746,258.567841 
	C225.249222,260.959625 226.668365,261.889771 228.818192,261.719971 
	C230.949570,261.551605 234.374130,262.791504 234.485214,259.455536 
	C234.651810,254.452194 237.060684,248.795792 230.455322,244.193161 
	C238.290588,242.546967 244.755554,242.648331 251.588913,243.774033 
	C246.765305,251.251022 246.940323,277.952698 252.043030,284.460693 
	C245.124496,285.919434 238.702225,285.529907 231.227905,284.618164 
	C236.293930,279.359802 234.431839,273.712952 234.714325,268.417847 
	C234.861267,265.663696 232.997314,265.127686 230.746948,265.242859 
	C228.485367,265.358582 225.405853,264.812378 225.473663,268.198456 
	C225.580963,273.557220 223.172516,279.492401 229.819016,284.695374 
	C223.161118,285.852325 217.770233,285.106934 212.078964,285.411316 
z"/>
<path fill="#000000" opacity="1.000000" stroke="none" 
	d="
M136.883453,151.431976 
	C139.131165,165.141983 133.363632,176.356873 122.363358,180.253204 
	C111.875641,183.967987 100.209534,179.804016 95.062332,170.508682 
	C88.872185,159.329880 91.341148,145.158325 100.740067,137.919159 
	C109.461105,131.202103 122.283409,131.958130 130.519318,139.796997 
	C133.739197,142.861649 135.327087,146.939194 136.883453,151.431976 
M121.760643,157.500961 
	C121.395454,152.051773 122.252441,146.528442 120.281990,141.173172 
	C119.203590,138.242279 117.275612,136.643417 114.393280,136.697159 
	C111.470512,136.751617 109.514580,138.487213 108.828384,141.513077 
	C106.467415,151.923996 106.888596,162.341324 108.803062,172.736740 
	C109.368813,175.808731 111.174545,177.731293 114.663925,177.747681 
	C118.117622,177.763931 119.749664,175.913513 120.676857,172.876160 
	C122.120590,168.146667 121.653305,163.298904 121.760643,157.500961 
z"/>
<path fill="#000000" opacity="1.000000" stroke="none" 
	d="
M234.385086,180.210236 
	C232.325256,180.089569 230.516907,180.529526 229.307434,178.246613 
	C233.958237,174.893631 232.843094,169.772293 232.867477,164.950821 
	C232.900314,158.456970 232.801178,151.961975 232.882187,145.469025 
	C232.928192,141.780670 233.129593,138.126556 229.310638,136.046295 
	C230.412582,133.412582 232.467468,134.028671 234.153473,134.015152 
	C242.644531,133.947006 251.136322,133.963791 259.627869,133.965836 
	C265.992279,133.967377 266.282806,134.238358 266.265472,140.805725 
	C266.260071,142.849609 266.823303,145.082062 265.322876,146.769501 
	C262.827911,146.630280 262.992371,144.776917 262.480103,143.493652 
	C261.346710,140.654465 259.243896,138.961975 256.413544,137.986160 
	C249.818024,135.712204 247.305374,137.465088 247.438721,144.315948 
	C247.474319,146.145462 247.335190,148.007996 247.637527,149.794235 
	C247.929382,151.518723 246.725494,154.226074 249.904144,154.488922 
	C252.669052,154.717545 255.270416,154.332077 256.565765,151.306198 
	C257.180359,149.870590 256.940277,147.882904 259.001495,147.325180 
	C261.667725,150.972473 261.886932,160.887772 259.385315,164.859818 
	C257.097198,164.695358 257.248474,162.684448 256.696594,161.235870 
	C255.691101,158.596527 253.586380,158.021454 251.067108,158.107758 
	C248.268661,158.203644 248.249634,160.230621 247.863831,162.274368 
	C247.198624,165.797943 247.977982,169.245178 248.041962,172.725372 
	C248.084076,175.015671 249.474594,175.786072 251.599289,176.018295 
	C257.257111,176.636658 261.092010,174.471771 263.520050,169.116226 
	C264.120728,167.791275 264.286682,166.168213 266.496216,165.202484 
	C269.307251,169.169571 268.327362,173.688095 267.585052,177.774124 
	C266.936432,181.344406 263.282837,180.118973 260.810211,180.154465 
	C252.153381,180.278763 243.493729,180.207153 234.385086,180.210236 
z"/>
<path fill="#000000" opacity="1.000000" stroke="none" 
	d="
M68.907341,243.761871 
	C72.139915,244.306686 75.930443,242.164185 77.422142,245.767883 
	C78.695885,248.845047 78.721260,252.405014 77.165817,255.551682 
	C74.577576,255.299469 74.561249,253.459763 73.943321,252.220154 
	C72.570747,249.466675 70.365807,247.864365 67.447807,247.262939 
	C62.582104,246.260056 61.137974,247.469131 61.011810,252.501465 
	C60.974274,253.998795 60.937641,255.503281 61.038410,256.995178 
	C61.166569,258.892609 60.565346,261.330444 63.381828,261.788391 
	C66.103546,262.230927 68.289139,261.306427 69.427002,258.547974 
	C69.834496,257.560089 69.458473,256.082092 71.039299,255.766617 
	C73.534103,259.059265 73.782784,268.182678 71.487686,272.327209 
	C69.261162,272.222168 69.757538,270.185822 69.233841,268.971832 
	C68.197433,266.569336 66.350983,265.927063 63.995728,266.076630 
	C61.204834,266.253815 61.068645,268.329254 60.975109,270.386017 
	C60.914658,271.715271 60.784515,273.072906 60.975204,274.375427 
	C61.368156,277.059540 59.309292,281.025452 63.725159,281.823151 
	C68.062988,282.606750 71.904007,281.257507 74.463043,277.161377 
	C75.541023,275.435913 75.007874,272.677887 78.249786,271.752258 
	C80.065529,275.883026 79.355225,280.086029 78.694046,284.210144 
	C78.454880,285.701965 76.882652,286.039581 75.484772,286.041931 
	C65.829567,286.058075 56.174286,286.062012 46.519115,286.036713 
	C45.497265,286.034027 44.538376,285.709991 44.634239,284.614685 
	C48.100956,271.607178 47.671276,258.562256 45.207268,244.061172 
	C52.227909,243.314575 60.352863,243.924194 68.907341,243.761871 
z"/>
<path fill="#000000" opacity="1.000000" stroke="none" 
	d="
M196.801834,156.999817 
	C196.802246,151.671936 196.904694,146.840729 196.768066,142.016266 
	C196.661911,138.267639 194.822205,137.378510 191.671906,139.395142 
	C189.459473,140.811417 188.262589,142.948090 187.525330,145.426468 
	C187.086929,146.900192 187.306610,148.898178 184.331680,149.303986 
	C183.278687,144.808334 183.448914,140.280655 184.216309,135.818573 
	C184.512436,134.096756 186.512238,134.191864 188.016205,134.181976 
	C198.321228,134.114273 208.629303,134.185760 218.929947,133.940918 
	C223.044250,133.843124 224.781036,135.308304 224.367340,139.449677 
	C224.063278,142.493622 224.734390,145.645798 223.749771,148.639099 
	C221.183929,148.598755 221.146667,146.809387 220.797668,145.511383 
	C220.205948,143.310638 218.890289,141.611221 217.336761,140.116501 
	C216.146133,138.970932 214.631378,137.880417 212.859940,138.628906 
	C211.164474,139.345291 211.431732,141.101486 211.433258,142.568405 
	C211.442596,151.550873 211.462997,160.533508 211.533615,169.515640 
	C211.560196,172.897949 212.313217,176.039795 215.399918,178.070160 
	C212.190735,180.904114 197.189987,181.112305 193.000885,178.368454 
	C198.296646,175.430817 196.577698,170.434052 196.770432,165.989700 
	C196.892944,163.164474 196.798218,160.329834 196.801834,156.999817 
z"/>
<path fill="#000000" opacity="1.000000" stroke="none" 
	d="
M180.140289,283.321777 
	C174.889771,285.831543 169.755203,286.826355 164.300995,286.438385 
	C155.883011,285.839630 149.631454,281.975159 146.520157,274.090576 
	C142.922058,264.972382 144.223816,256.218048 150.890198,248.972626 
	C156.501617,242.873825 163.849533,241.147308 171.909348,243.319275 
	C174.614731,244.048309 177.210373,245.185776 180.329224,244.379822 
	C182.211929,249.140732 181.215958,253.608398 181.041992,258.023132 
	C178.183624,258.434967 178.200180,256.663757 177.739838,255.313278 
	C176.767136,252.459625 175.569168,249.748810 173.080917,247.821060 
	C167.733109,243.677917 161.412979,245.940201 160.379868,252.598114 
	C159.178619,260.339600 158.617783,268.134766 160.193344,275.925568 
	C160.806854,278.959137 161.645752,281.904175 165.157532,282.650940 
	C167.582626,283.166595 170.057709,282.678558 171.075684,280.128265 
	C172.289719,277.086884 173.633698,273.797424 170.063461,271.158508 
	C169.755722,270.931061 169.763733,270.276398 169.375168,268.998047 
	C175.491348,267.592102 181.311707,267.637970 188.339859,269.039551 
	C183.617310,273.297852 187.193375,280.715027 180.140289,283.321777 
z"/>
<path fill="#000000" opacity="1.000000" stroke="none" 
	d="
M295.511658,180.982269 
	C291.859955,181.527893 288.743469,180.957306 285.876953,179.524490 
	C283.312988,178.242935 280.885132,177.874420 278.448456,179.511505 
	C276.163483,175.799835 276.133301,168.903564 278.284576,164.954575 
	C280.757996,165.312622 280.386444,167.678619 281.080292,169.165619 
	C283.835510,175.070160 288.628876,177.891006 294.663208,176.860748 
	C298.588348,176.190582 301.130005,173.720413 301.442535,169.927063 
	C301.736572,166.358276 298.811066,164.815079 295.729492,164.041122 
	C292.827698,163.312271 289.846619,162.893692 286.953888,162.134842 
	C278.699463,159.969559 274.445526,152.677261 276.595856,144.554367 
	C278.947357,135.671570 286.228607,131.194717 294.727203,133.363388 
	C298.000427,134.198639 301.094635,136.521545 305.067780,134.084854 
	C306.709656,138.651779 306.425598,142.682571 305.416351,146.758514 
	C302.295074,146.998703 302.335083,144.644409 301.535736,143.204895 
	C299.292450,139.165009 296.246124,136.404938 291.359589,136.277847 
	C287.273865,136.171600 285.097473,138.602768 284.526215,142.190292 
	C283.918762,146.004593 286.574463,147.361221 289.930267,147.874451 
	C292.722168,148.301407 295.496948,148.888336 298.244141,149.550461 
	C305.358582,151.265137 309.573822,155.956100 310.067566,162.573318 
	C310.591309,169.592285 306.597626,176.795151 300.661896,179.362930 
	C299.144653,180.019302 297.508636,180.401184 295.511658,180.982269 
z"/>
<path fill="#000000" opacity="1.000000" stroke="none" 
	d="
M56.797684,135.464966 
	C63.290798,133.141342 69.478172,132.159180 75.532974,135.356064 
	C77.940483,136.627197 79.986313,135.412491 82.842049,134.788132 
	C83.548126,140.182419 83.787163,145.186661 82.687981,150.077438 
	C80.394478,150.415649 80.147675,149.251801 79.728577,148.128235 
	C78.977112,146.113663 78.344551,143.995483 77.228584,142.188431 
	C74.866203,138.363098 71.277260,136.338470 66.748451,136.868713 
	C61.744267,137.454559 59.778996,141.127701 59.389961,145.608231 
	C58.698128,153.576080 58.651157,161.585068 59.411358,169.544769 
	C59.769207,173.291656 61.245701,176.718689 65.584625,177.679535 
	C69.937286,178.643402 74.792343,176.277679 77.698898,172.405502 
	C79.516083,169.984604 78.968742,166.550812 82.008698,163.886948 
	C84.602226,169.442963 82.972557,174.552582 82.875023,180.270218 
	C78.476959,178.418304 75.199440,180.377289 71.692238,181.073685 
	C59.049671,183.583893 48.044487,177.196304 44.052017,165.356018 
	C40.487606,154.785202 44.159187,140.586609 56.797684,135.464966 
z"/>
<path fill="#000000" opacity="1.000000" stroke="none" 
	d="
M157.196014,142.332748 
	C159.031433,139.252411 157.979843,134.285324 163.061264,134.358582 
	C167.900787,134.428345 167.753159,138.980881 168.901855,141.978287 
	C171.994476,150.048264 174.622391,158.295029 177.605621,166.408783 
	C179.189392,170.716339 180.127838,175.369492 184.855957,179.457886 
	C177.200439,180.677597 170.885666,180.489166 164.407471,179.722687 
	C165.642105,174.571396 164.046204,167.615662 161.272018,166.740463 
	C158.673538,165.920685 155.109833,164.945587 153.327332,167.451401 
	C150.917648,170.838898 148.742249,174.979767 153.574387,178.899460 
	C149.852615,181.014450 146.639786,180.569794 143.070297,179.376892 
	C149.975571,167.781006 152.507492,154.862885 157.196014,142.332748 
M155.863739,157.434814 
	C155.475281,158.968124 154.415161,160.395035 155.193344,162.424927 
	C156.819839,162.592651 158.522278,163.162109 160.292923,161.622345 
	C159.838867,158.819519 159.301376,156.068893 157.557343,152.950272 
	C156.893066,154.694992 156.492264,155.747757 155.863739,157.434814 
z"/>
<path fill="#000000" opacity="1.000000" stroke="none" 
	d="
M310.118347,247.292053 
	C309.664917,250.848709 311.404694,254.306396 308.412415,257.688965 
	C305.644684,253.565079 305.559937,247.414169 299.355591,246.841705 
	C296.682922,252.871841 297.976288,279.792358 301.639160,284.261993 
	C294.748749,286.094208 288.259766,284.889069 281.418243,284.568390 
	C286.107483,280.174744 284.646606,274.886017 284.723755,269.954285 
	C284.817444,263.967194 284.774109,257.977051 284.715454,251.988983 
	C284.698303,250.238831 285.171875,248.309097 283.461639,246.718399 
	C277.817505,247.887436 276.811401,252.893341 274.608673,258.479736 
	C271.891815,253.441635 272.428619,249.171555 273.104828,245.275024 
	C273.664429,242.050385 277.106506,243.013748 279.449219,242.989120 
	C287.931702,242.899963 296.415833,242.969772 304.899353,242.977722 
	C307.589996,242.980240 309.995880,243.360336 310.118347,247.292053 
z"/>
<path fill="#000000" opacity="1.000000" stroke="none" 
	d="
M104.993240,278.434937 
	C104.343506,266.908997 106.853035,255.606125 103.090004,243.982910 
	C109.158318,243.246704 115.586342,243.647964 123.401718,244.044022 
	C117.243034,249.431839 119.632210,255.453537 119.306175,260.960083 
	C119.011520,265.936523 119.213577,270.944244 119.252922,275.937744 
	C119.272057,278.365723 118.761360,280.882111 121.525009,282.563324 
	C122.915741,283.409393 122.644569,285.428345 121.013298,285.590973 
	C114.854073,286.205170 108.657104,286.375854 102.539116,285.695801 
	C102.462021,282.327881 105.362778,281.282135 104.993240,278.434937 
z"/>
<path fill="#000000" opacity="1.000000" stroke="none" 
	d="
M249.257690,302.849792 
	C249.532822,304.012482 250.082169,305.057373 249.766861,305.597809 
	C246.637268,310.961639 249.865295,315.587189 251.506012,320.292358 
	C252.387436,322.820068 251.070816,323.719025 249.409866,324.514801 
	C245.906342,326.193359 241.754074,323.594208 240.887604,319.363312 
	C240.504028,317.490356 241.444000,315.342133 239.789368,313.692627 
	C237.163467,316.142883 237.128647,316.671448 239.201508,323.490997 
	C235.865143,325.459656 232.164429,324.091583 228.686920,324.371124 
	C227.426727,324.472412 227.061401,323.047943 227.488556,321.686432 
	C229.828705,314.227478 229.136185,306.768158 227.493958,299.267517 
	C234.114853,295.956757 245.236725,297.582581 249.257690,302.849792 
M237.970215,305.515930 
	C238.181122,306.694336 237.529312,308.228973 239.376755,308.834290 
	C240.958664,307.666199 240.837463,305.998932 240.698212,304.353821 
	C240.623703,303.473724 240.242493,302.669098 239.193527,302.858215 
	C238.196960,303.037933 238.174530,304.016052 237.970215,305.515930 
z"/>
<path fill="#000000" opacity="1.000000" stroke="none" 
	d="
M122.973450,315.971008 
	C125.098663,315.078552 126.306526,315.836884 126.173164,318.086823 
	C126.036110,320.399017 127.428024,323.929047 124.063004,324.478851 
	C117.607544,325.533569 111.019508,325.680573 104.423309,324.301025 
	C106.551552,315.613678 106.763031,307.509674 104.258789,298.832214 
	C110.846237,297.506134 117.517929,297.202698 123.826653,298.830688 
	C127.149940,299.688263 125.442879,303.494110 124.734619,306.505371 
	C121.703140,305.001831 120.769897,299.612671 116.708191,301.967407 
	C114.048492,303.509338 115.224304,306.609894 115.873772,308.984161 
	C118.744118,310.326874 119.164459,306.877502 121.615257,306.776550 
	C123.040642,309.373077 121.772736,312.536041 122.602341,315.746704 
	C120.424728,317.095856 119.941124,315.438263 119.071098,314.290466 
	C118.278625,313.244965 116.937691,312.789825 116.113564,313.857971 
	C114.580780,315.844635 114.798027,318.448273 115.758995,320.416077 
	C116.843597,322.637146 118.958473,321.166321 120.508278,320.469543 
	C122.358620,319.637665 122.908287,317.888397 122.973450,315.971008 
z"/>
<path fill="#000000" opacity="1.000000" stroke="none" 
	d="
M307.377319,322.353668 
	C302.463501,326.940216 296.998383,324.916077 292.481354,323.345367 
	C289.441803,322.288422 290.758209,318.125916 291.986420,315.281128 
	C294.656403,315.567291 294.539062,318.011810 295.817566,319.226074 
	C297.771973,321.082275 299.689545,322.446259 302.434204,321.001495 
	C303.483887,320.448975 304.490845,319.758728 304.499908,318.413422 
	C304.509155,317.043488 303.504364,316.301025 302.392578,315.906219 
	C300.832001,315.351959 299.196686,315.006714 297.590942,314.581177 
	C292.015167,313.103607 289.853027,309.732483 290.970551,304.251190 
	C291.936615,299.512665 296.517975,296.714783 301.679443,297.768982 
	C303.609253,298.163116 305.511353,298.692780 307.807465,299.253845 
	C308.139893,301.340424 309.142456,303.629181 307.431213,305.910736 
	C304.653076,305.525055 304.643036,302.525421 302.679230,301.564911 
	C301.176392,300.829834 299.755402,299.821625 298.044586,300.970490 
	C297.157990,301.565887 296.569855,302.406036 296.830444,303.493530 
	C297.243256,305.216370 298.748199,305.646393 300.209778,306.063690 
	C300.849243,306.246277 301.488800,306.434723 302.137878,306.576691 
	C310.792908,308.469452 312.951447,314.517883 307.377319,322.353668 
z"/>
<path fill="#000000" opacity="1.000000" stroke="none" 
	d="
M45.033546,303.866882 
	C44.572601,302.116089 42.756256,301.278595 43.344063,299.536163 
	C50.962017,296.133972 55.753700,298.348022 56.937466,307.899139 
	C59.737347,304.628784 60.347992,302.260284 58.678001,299.532379 
	C61.426311,298.436493 63.564388,298.154358 66.236435,299.416779 
	C60.606800,306.779694 56.695213,314.366913 60.944099,324.147614 
	C56.577686,325.669983 52.452213,325.427185 47.633171,324.283508 
	C51.788998,316.586212 48.656960,310.371643 45.033546,303.866882 
z"/>
<path fill="#000000" opacity="1.000000" stroke="none" 
	d="
M169.057953,324.927429 
	C166.660461,324.669098 164.724670,324.092651 166.260010,321.527710 
	C169.904587,315.439087 170.949310,308.398621 173.660904,301.975220 
	C174.386032,300.257507 174.847916,298.323273 177.198196,298.419098 
	C179.282837,298.504089 179.692261,300.320679 180.272415,301.878845 
	C182.932800,309.024170 184.967194,316.400177 188.482758,323.153046 
	C182.719681,326.745239 179.163696,325.615234 177.157333,319.741241 
	C176.447433,317.662872 175.195129,316.611267 173.043320,317.219299 
	C171.094513,317.769897 170.324997,319.433472 171.127335,321.125183 
	C172.182037,323.349060 172.074783,324.586945 169.057953,324.927429 
z"/>
<path fill="#000000" opacity="1.000000" stroke="none" 
	d="
M206.804565,110.162163 
	C210.177887,111.178429 213.499924,109.618355 216.452896,111.319244 
	C216.452896,115.679855 216.452896,119.953751 216.452896,124.483528 
	C212.804535,125.978493 209.008606,125.149551 205.291992,125.171318 
	C204.832306,125.174011 204.285904,124.953499 203.923584,124.659233 
	C201.311584,122.537910 203.222977,111.464447 206.804565,110.162163 
z"/>
<path fill="#000000" opacity="1.000000" stroke="none" 
	d="
M174.212692,117.130722 
	C174.395508,114.970375 174.559464,113.185188 174.719528,111.442467 
	C177.026855,110.147598 179.424194,110.418144 181.669571,110.300522 
	C184.620529,110.145935 186.148529,111.777367 184.901505,114.718781 
	C184.047714,116.732643 184.072372,118.391960 184.943954,120.378830 
	C186.370575,123.630943 185.289001,125.525887 181.512390,125.350800 
	C179.224716,125.244743 176.880325,125.732811 174.527191,124.729019 
	C173.436493,122.393013 174.702438,119.890511 174.212692,117.130722 
z"/>
<path fill="#000000" opacity="1.000000" stroke="none" 
	d="
M206.577759,350.894775 
	C203.942139,348.010376 204.709045,344.503784 204.167831,341.344055 
	C203.752533,338.919312 205.961380,338.598022 207.888428,338.555389 
	C210.848755,338.489929 213.809006,338.413483 216.769699,338.374878 
	C219.689026,338.336853 220.477921,339.481506 218.689987,341.971313 
	C218.401764,342.372681 217.961609,342.697266 217.776596,343.135406 
	C215.740417,347.957733 212.959229,351.718811 206.577759,350.894775 
z"/>
<path fill="#000000" opacity="1.000000" stroke="none" 
	d="
M144.127701,111.662285 
	C148.221939,109.249031 149.899063,112.650764 152.066620,114.672272 
	C153.444656,113.498322 152.537170,110.188835 155.332489,111.121284 
	C157.447189,111.826698 156.154846,114.013252 156.236099,115.531967 
	C156.341904,117.509323 156.224808,119.501030 156.152267,121.484688 
	C156.097229,122.989311 156.027039,124.594269 154.244690,125.133255 
	C152.456085,125.674141 151.540512,124.380539 150.647369,123.143051 
	C149.790604,121.955963 148.904404,120.790108 147.824020,119.336205 
	C147.471222,120.067581 147.196655,120.431053 147.119675,120.832428 
	C146.811096,122.441772 148.018066,125.131119 145.229401,125.106331 
	C142.105316,125.078552 143.858551,122.379822 143.790131,120.881081 
	C143.654984,117.921539 143.845963,114.947113 144.127701,111.662285 
z"/>
<path fill="#000000" opacity="1.000000" stroke="none" 
	d="
M102.296478,216.866211 
	C105.995811,217.034409 109.322838,216.437469 112.879814,217.787292 
	C111.731071,221.598572 109.860306,224.830704 107.673851,227.821869 
	C105.785873,230.404709 102.831558,228.242645 100.375389,228.710480 
	C98.539223,229.060196 98.638336,225.842392 98.807907,224.164047 
	C99.076660,221.504089 95.507210,217.033829 102.296478,216.866211 
z"/>
<path fill="#000000" opacity="1.000000" stroke="none" 
	d="
M267.055573,124.269920 
	C265.195221,125.421150 263.549713,125.319641 261.894714,125.113014 
	C261.568359,125.072273 261.244934,124.990532 260.927124,124.902512 
	C259.749969,124.576477 258.139618,123.611885 258.658844,122.749214 
	C260.947235,118.947021 256.249573,113.731453 261.249176,110.636795 
	C263.359406,109.330627 265.486359,109.888359 267.381287,110.939583 
	C269.936676,112.357231 269.856018,120.342255 267.055573,124.269920 
z"/>
<path fill="#000000" opacity="1.000000" stroke="none" 
	d="
M179.616180,439.891541 
	C182.508194,439.639587 184.958267,440.413300 187.645081,440.003998 
	C191.057648,439.484100 192.127686,443.934723 195.182327,444.976868 
	C195.811050,445.191345 195.126984,447.178894 193.597809,447.244202 
	C192.798645,447.278320 191.990875,446.954956 191.178940,446.871552 
	C186.812424,446.422882 182.433548,446.074738 178.082474,445.510437 
	C177.057281,445.377502 176.578659,445.883545 175.938278,446.313263 
	C174.298126,447.414001 172.796539,447.276611 171.563080,445.731354 
	C170.525330,444.431274 170.528305,442.971985 171.362228,441.557404 
	C172.366638,439.853638 173.900299,439.386414 175.599503,440.272766 
	C176.987122,440.996582 178.111267,440.786255 179.616180,439.891541 
z"/>
<path fill="#000000" opacity="1.000000" stroke="none" 
	d="
M170.004517,219.942596 
	C169.964386,218.186142 170.547440,217.106888 171.873856,217.035675 
	C176.076996,216.809998 180.317841,216.341965 184.976593,217.572098 
	C182.068130,223.441849 180.679108,230.105759 171.785843,228.539673 
	C170.042801,226.333862 170.859848,223.147949 170.004517,219.942596 
z"/>
<path fill="#000000" opacity="1.000000" stroke="none" 
	d="
M201.499542,457.138885 
	C198.853470,456.480713 195.324966,458.600708 194.805542,454.310333 
	C194.651031,453.034180 194.391006,451.006195 195.781219,450.808167 
	C198.278641,450.452454 201.194580,449.462250 203.361557,450.935425 
	C204.753204,451.881531 204.852554,451.904266 206.167267,450.928314 
	C208.998154,448.826935 212.241821,450.518280 215.179291,451.085297 
	C216.752045,451.388855 216.282730,453.638519 216.106171,455.076630 
	C215.902832,456.732727 214.741196,456.982513 213.199310,456.956421 
	C209.443588,456.892822 205.684174,457.048340 201.499542,457.138885 
z"/>
<path fill="#000000" opacity="1.000000" stroke="none" 
	d="
M187.603531,348.819031 
	C184.531433,351.447144 181.459152,352.570251 178.409943,349.826263 
	C175.956070,347.618073 176.143143,344.617279 177.801178,342.071503 
	C179.745850,339.085693 182.540146,337.022095 186.219818,339.190460 
	C190.194977,341.532806 190.329819,344.892639 187.603531,348.819031 
z"/>
<path fill="#000000" opacity="1.000000" stroke="none" 
	d="
M260.829651,338.724548 
	C264.145782,338.586639 267.738037,337.681580 267.820465,342.297058 
	C267.935303,348.728271 266.282440,350.597473 261.206177,350.902130 
	C259.434387,351.008423 257.648407,351.778503 255.411652,350.034943 
	C257.684174,346.620178 255.751495,341.445160 260.829651,338.724548 
z"/>
<path fill="#000000" opacity="1.000000" stroke="none" 
	d="
M239.644730,338.102905 
	C243.207260,338.710999 244.511993,340.197418 242.519592,343.283539 
	C242.161926,343.837494 241.659927,344.391296 241.558563,345.000702 
	C241.227081,346.993683 242.594498,349.693756 239.958099,350.720245 
	C237.189774,351.798096 234.197495,351.666412 231.395615,350.465912 
	C232.680328,339.280701 232.910919,338.922760 239.644730,338.102905 
z"/>
<path fill="#000000" opacity="1.000000" stroke="none" 
	d="
M136.309067,221.133453 
	C135.915833,221.904602 135.538315,222.322876 135.478775,222.782349 
	C134.564850,229.836655 132.753876,230.973862 125.253105,228.925873 
	C124.884598,225.483459 126.509857,222.285233 127.228729,219.033173 
	C127.912567,215.939590 131.255722,216.941406 133.608719,216.937363 
	C136.125580,216.933029 137.235321,218.238647 136.309067,221.133453 
z"/>
<path fill="#000000" opacity="1.000000" stroke="none" 
	d="
M252.645691,229.207123 
	C250.207077,228.895386 246.744446,230.185669 246.555206,227.751724 
	C246.301666,224.490616 247.244873,220.683014 248.933792,217.864914 
	C250.335800,215.525604 253.808853,216.667023 256.404938,217.035202 
	C256.931030,217.109802 257.544525,217.750519 257.807678,218.283356 
	C258.732178,220.155350 255.151093,228.264618 252.645691,229.207123 
z"/>
<path fill="#000000" opacity="1.000000" stroke="none" 
	d="
M207.059906,225.081680 
	C206.656418,231.353027 202.108902,229.278900 199.199631,228.988373 
	C195.166000,228.585526 197.419952,225.521072 197.903687,223.573441 
	C198.736649,220.219650 198.608505,216.089752 204.237045,216.660583 
	C209.083435,217.152069 209.734589,217.852142 207.571274,222.352402 
	C207.227051,223.068497 207.170593,223.922928 207.059906,225.081680 
z"/>
<path fill="#000000" opacity="1.000000" stroke="none" 
	d="
M116.674324,350.645508 
	C113.748535,349.883392 113.748535,349.883392 111.798744,347.117920 
	C110.709496,348.992432 110.781853,352.734985 106.855042,350.489075 
	C107.077988,347.047699 109.538162,344.052765 109.486595,340.333954 
	C109.462708,338.611145 111.759514,338.546234 113.114571,339.331635 
	C114.335037,340.039062 115.244675,341.282715 116.332710,342.329590 
	C117.459793,341.872986 116.702271,340.589874 117.268219,339.840302 
	C117.934639,338.957703 118.790771,338.527740 119.838890,338.936401 
	C120.952499,339.370605 121.364883,340.438049 120.793564,341.356781 
	C119.031044,344.191010 119.195595,347.811127 116.674324,350.645508 
z"/>
<path fill="#000000" opacity="1.000000" stroke="none" 
	d="
M61.785316,115.470558 
	C59.722649,116.782562 59.144756,115.663918 58.976974,114.112526 
	C58.821445,112.674484 59.321701,111.181198 60.848370,111.060677 
	C63.966385,110.814537 67.121483,110.834328 70.248741,110.992699 
	C71.881104,111.075378 72.225143,112.478836 72.201401,113.941414 
	C72.153076,116.918320 69.515198,114.562469 68.460617,115.761787 
	C68.460617,118.669540 68.460617,121.621658 68.459564,124.573013 
	C63.499680,126.548180 62.591419,125.945831 62.655399,121.084114 
	C62.680206,119.199295 63.483498,117.159683 61.785316,115.470558 
z"/>
<path fill="#000000" opacity="1.000000" stroke="none" 
	d="
M222.514587,224.284607 
	C223.452530,220.158676 223.371185,215.606903 229.452682,216.782898 
	C232.299973,217.333527 233.675659,218.828049 232.714920,221.590530 
	C232.161591,223.181488 231.757629,224.616409 231.907288,226.327209 
	C232.089218,228.407043 230.865738,229.404449 228.801147,228.960220 
	C227.710785,228.725616 226.844757,228.354797 225.560226,228.754410 
	C221.265320,230.090591 220.998688,227.927979 222.514587,224.284607 
z"/>
<path fill="#000000" opacity="1.000000" stroke="none" 
	d="
M99.730942,124.529907 
	C96.339653,126.597672 94.226357,125.392769 93.111763,122.360085 
	C91.302368,122.130501 91.481026,123.475746 91.041061,124.253700 
	C90.578316,125.071953 89.887604,125.459312 88.977539,125.138924 
	C87.737694,124.702446 87.702156,123.628166 88.050194,122.670296 
	C89.183945,119.550049 90.424187,116.468285 91.638626,113.377670 
	C92.074066,112.269547 92.608658,111.170959 94.009209,111.155907 
	C95.428932,111.140656 95.997337,112.255516 96.372978,113.366913 
	C97.589317,116.965668 98.734283,120.588547 99.730942,124.529907 
z"/>
<path fill="#000000" opacity="1.000000" stroke="none" 
	d="
M104.717720,390.017456 
	C107.426567,392.011475 110.047470,389.965485 112.461685,390.011749 
	C113.104172,399.381470 110.293091,401.608093 100.548416,399.465546 
	C101.500801,396.164825 101.046722,392.440063 104.717720,390.017456 
z"/>
<path fill="#000000" opacity="1.000000" stroke="none" 
	d="
M153.175537,343.165863 
	C154.670074,338.737213 159.319092,337.236572 162.541321,339.808472 
	C164.081589,341.037842 164.572998,342.774719 163.238403,344.138245 
	C160.782974,346.646851 157.552444,348.285004 155.229370,351.046509 
	C154.685974,351.692444 153.007172,351.413696 151.796036,350.494537 
	C150.794769,348.038757 152.955429,345.950043 153.175537,343.165863 
z"/>
<path fill="#000000" opacity="1.000000" stroke="none" 
	d="
M203.601410,446.467102 
	C201.395844,446.622223 199.864578,446.279266 200.025711,443.917175 
	C200.134918,442.316284 199.933243,440.052887 202.123184,440.012268 
	C206.007935,439.940277 209.915405,439.092651 213.801636,441.036865 
	C216.473877,442.373779 216.733719,443.714600 215.599091,445.999420 
	C211.630463,445.840637 207.743256,445.374756 203.601410,446.467102 
z"/>
<path fill="#000000" opacity="1.000000" stroke="none" 
	d="
M234.622192,113.105324 
	C234.784592,110.119194 236.547195,109.871613 238.527191,110.214615 
	C240.597076,110.573196 240.988876,112.158615 240.975815,113.979118 
	C240.950912,117.451279 240.968582,120.923752 240.968582,124.036278 
	C238.827621,125.697945 237.048965,125.211586 234.647644,124.828903 
	C234.647644,121.022461 234.647644,117.260117 234.622192,113.105324 
z"/>
<path fill="#000000" opacity="1.000000" stroke="none" 
	d="
M186.488831,422.123718 
	C178.362930,421.578491 170.487930,423.254181 162.932663,421.156769 
	C162.956421,420.557526 162.980179,419.958282 163.003937,419.359039 
	C172.364594,419.359039 181.725250,419.359039 191.246704,419.359039 
	C190.739594,422.548767 188.645493,421.989319 186.488831,422.123718 
z"/>
<path fill="#000000" opacity="1.000000" stroke="none" 
	d="
M288.364746,389.613403 
	C291.909393,390.792114 293.531525,392.879242 291.973389,396.155548 
	C290.435486,399.389252 287.442841,400.310577 284.034546,399.991516 
	C283.151062,399.908783 282.510071,399.356873 282.201874,398.516571 
	C281.316528,396.102753 285.355133,389.871429 288.364746,389.613403 
z"/>
<path fill="#000000" opacity="1.000000" stroke="none" 
	d="
M165.669678,196.734268 
	C174.100189,196.717026 182.104675,196.717026 190.157623,196.717026 
	C190.074814,199.977539 188.312485,199.871902 186.943283,199.890121 
	C179.981979,199.982849 173.018967,199.988586 166.056992,199.950089 
	C164.789017,199.943069 163.118729,199.955078 163.011871,198.191269 
	C162.937546,196.964539 164.261688,196.890320 165.669678,196.734268 
z"/>
<path fill="#000000" opacity="1.000000" stroke="none" 
	d="
M135.075104,400.201477 
	C131.918411,400.354889 130.148041,399.345886 131.829849,396.527008 
	C133.106079,394.387909 131.620026,390.788757 135.120560,389.980408 
	C136.840012,389.583344 138.922241,389.257874 140.238724,390.809204 
	C142.398865,393.354584 140.382568,396.210083 140.125229,398.815765 
	C139.894470,401.152374 137.136261,399.865173 135.075104,400.201477 
z"/>
<path fill="#000000" opacity="1.000000" stroke="none" 
	d="
M149.140747,439.908447 
	C151.660263,441.682800 151.115921,444.113281 150.320755,445.825745 
	C149.395599,447.818146 147.295212,446.873779 145.476471,446.368866 
	C144.310867,446.045227 142.915466,446.529968 141.625870,446.676971 
	C139.719620,446.894318 137.761414,447.141693 137.946594,444.266083 
	C138.086182,442.098297 138.119354,439.792206 141.307098,439.853027 
	C143.786392,439.900360 146.268005,439.827301 149.140747,439.908447 
z"/>
<path fill="#000000" opacity="1.000000" stroke="none" 
	d="
M233.585968,396.054138 
	C233.687943,402.447571 228.897842,399.356567 226.338531,399.997131 
	C224.497116,400.458008 223.806763,398.499603 224.787750,396.977020 
	C226.521759,394.285797 224.713425,388.386658 231.101166,389.765228 
	C234.801193,390.563782 234.817520,392.877258 233.585968,396.054138 
z"/>
<path fill="#000000" opacity="1.000000" stroke="none" 
	d="
M178.978363,368.721008 
	C183.223572,369.130737 187.267166,367.723328 191.162720,370.132507 
	C187.054489,373.104645 166.530090,373.039703 162.367996,369.655762 
	C168.158112,367.952118 173.404938,369.080078 178.978363,368.721008 
z"/>
<path fill="#000000" opacity="1.000000" stroke="none" 
	d="
M293.107513,116.267357 
	C293.155975,118.493065 293.129517,120.310448 293.279449,122.113159 
	C293.497620,124.736671 291.882874,125.148628 289.859711,125.096825 
	C287.807129,125.044273 286.987213,124.125618 287.252350,121.931053 
	C287.566589,119.329956 287.644684,116.673309 287.522278,114.054893 
	C287.421448,111.897331 287.205902,109.987259 290.206024,109.999840 
	C292.882294,110.011055 293.621246,111.478432 293.230164,113.880219 
	C293.124847,114.526932 293.147522,115.194481 293.107513,116.267357 
z"/>
<path fill="#000000" opacity="1.000000" stroke="none" 
	d="
M185.653290,396.558197 
	C188.084183,389.152008 188.123886,389.128540 195.614594,390.552856 
	C196.027283,393.251801 194.561661,395.553894 193.835114,398.009979 
	C193.789154,398.165314 193.687347,398.304474 193.609207,398.449951 
	C193.105118,399.388550 191.444656,400.139801 191.409515,399.756805 
	C191.002426,395.319458 184.187164,404.402649 185.653290,396.558197 
z"/>
<path fill="#000000" opacity="1.000000" stroke="none" 
	d="
M122.910004,455.630249 
	C119.046593,458.879852 115.194633,455.662292 111.370865,456.887573 
	C110.688965,453.183411 109.975998,450.294495 114.799812,450.092255 
	C122.798767,449.756927 123.020050,449.792755 122.910004,455.630249 
z"/>
<path fill="#000000" opacity="1.000000" stroke="none" 
	d="
M176.011414,89.679504 
	C181.057892,89.679123 185.609375,89.679123 191.054596,89.679123 
	C187.493698,93.610039 169.487564,94.032722 162.356186,90.837746 
	C167.240509,88.913155 171.482056,90.043465 176.011414,89.679504 
z"/>
<path fill="#000000" opacity="1.000000" stroke="none" 
	d="
M256.379486,399.747314 
	C253.110245,397.239502 253.143997,394.524261 255.199371,391.738190 
	C256.575836,389.872406 258.540375,388.950989 260.876251,389.677063 
	C263.830719,390.595428 262.956116,392.955750 262.723083,395.057861 
	C262.323151,398.665283 260.407867,400.368713 256.379486,399.747314 
z"/>
<path fill="#000000" opacity="1.000000" stroke="none" 
	d="
M140.478012,450.371765 
	C142.367020,451.449799 143.846100,451.209106 145.486343,450.503754 
	C146.981583,449.860779 148.472763,450.311066 149.405609,451.738037 
	C150.282394,453.079254 150.384659,454.654572 149.574524,455.989838 
	C148.660675,457.496063 146.974060,457.264404 145.516861,457.036835 
	C144.273895,456.842712 143.227905,455.822266 141.767502,456.584076 
	C139.632141,457.697968 137.697647,457.170074 137.002655,454.811890 
	C136.271011,452.329285 137.381622,450.628326 140.478012,450.371765 
z"/>
<path fill="#000000" opacity="1.000000" stroke="none" 
	d="
M229.419632,456.158813 
	C225.349258,456.430634 221.560226,456.430634 217.647827,456.430634 
	C216.721939,454.591583 216.252914,452.490143 217.882248,451.005493 
	C219.564087,449.472992 221.598343,449.906067 223.087921,451.739502 
	C223.782547,452.594513 224.173859,452.034088 224.532028,451.515381 
	C225.771683,449.719971 227.487701,449.829468 228.870773,450.908966 
	C230.459412,452.148987 230.560852,454.033234 229.419632,456.158813 
z"/>
<path fill="#000000" opacity="1.000000" stroke="none" 
	d="
M276.335968,397.306702 
	C274.700348,401.106812 271.289459,401.068268 269.208099,399.606720 
	C266.003540,397.356415 269.595490,394.300934 269.824463,391.572754 
	C270.055878,388.815674 273.065063,389.376923 275.091248,389.517609 
	C276.939392,389.645935 277.638306,391.142853 277.059784,392.750427 
	C276.552826,394.159180 275.990021,395.458221 276.335968,397.306702 
z"/>
<path fill="#000000" opacity="1.000000" stroke="none" 
	d="
M66.703598,397.717163 
	C65.313972,398.120667 65.657501,401.313507 63.124340,399.888916 
	C61.204411,398.809174 62.483810,397.265808 62.993942,395.981384 
	C64.116257,393.155640 63.911495,389.821320 69.143616,390.148590 
	C73.251595,390.405518 73.490341,390.985992 72.038300,394.166534 
	C71.420921,395.518860 71.058266,396.994141 70.380363,398.310822 
	C68.946342,401.096100 67.776657,400.127686 66.703598,397.717163 
z"/>
<path fill="#000000" opacity="1.000000" stroke="none" 
	d="
M235.371964,452.552307 
	C238.140106,447.907776 241.900986,451.307617 244.962875,451.239960 
	C247.519287,451.183472 250.130615,453.612305 252.530380,455.604553 
	C248.388504,456.122833 244.206619,457.570465 240.759583,453.456818 
	C239.293777,454.245728 240.790512,457.528473 237.904327,456.804932 
	C235.813049,456.280609 234.659576,455.192902 235.371964,452.552307 
z"/>
<path fill="#000000" opacity="1.000000" stroke="none" 
	d="
M118.207382,395.869659 
	C118.723312,393.907623 118.652740,391.955994 119.576363,390.795837 
	C120.943047,389.079163 123.645149,389.147980 125.070030,390.238434 
	C127.962524,392.451996 125.741760,395.709961 125.381859,398.310394 
	C125.000565,401.065430 121.991669,400.322418 119.924324,400.172607 
	C117.188553,399.974396 117.291801,398.209076 118.207382,395.869659 
z"/>
<path fill="#000000" opacity="1.000000" stroke="none" 
	d="
M156.550293,453.166504 
	C156.972153,450.308044 158.539642,449.516693 160.894028,450.169159 
	C162.742447,450.681427 163.534302,452.169525 163.532623,453.978088 
	C163.530426,456.359436 161.778183,457.010529 159.844925,457.191101 
	C158.360565,457.329712 156.852509,457.207062 155.355087,457.215454 
	C153.499298,457.225861 151.508835,457.406158 151.056046,454.917328 
	C150.787659,453.442169 150.557343,451.713928 152.060349,450.821838 
	C154.865997,449.156616 154.486786,453.314453 156.550293,453.166504 
z"/>
<path fill="#000000" opacity="1.000000" stroke="none" 
	d="
M93.581062,339.069031 
	C95.801918,345.757660 92.259369,351.588928 87.035118,350.612244 
	C87.269707,342.929504 89.111107,339.439392 93.581062,339.069031 
z"/>
<path fill="#000000" opacity="1.000000" stroke="none" 
	d="
M164.526031,399.174438 
	C161.365509,401.069550 159.023956,400.453278 157.913177,397.311584 
	C156.812012,394.197083 158.279770,391.780029 161.032150,390.271973 
	C162.534271,389.448944 164.252075,389.474365 165.769135,390.465149 
	C166.667404,391.051758 167.058838,391.958740 166.844193,393.043152 
	C166.333725,395.622070 163.933243,393.591095 162.547623,394.850922 
	C162.530273,396.535004 167.516846,395.935303 164.526031,399.174438 
z"/>
<path fill="#000000" opacity="1.000000" stroke="none" 
	d="
M211.774033,397.251587 
	C212.255768,394.837372 209.037323,392.764404 211.680038,390.672302 
	C213.690506,389.080750 216.148285,389.558105 218.373444,389.878052 
	C220.627899,390.202271 221.093948,392.300659 219.572464,393.461639 
	C217.733185,394.865112 216.439896,396.197113 216.106445,398.506714 
	C215.945404,399.622070 214.973038,400.089905 213.885147,400.089050 
	C212.212906,400.087738 211.481659,399.218109 211.774033,397.251587 
z"/>
<path fill="#000000" opacity="1.000000" stroke="none" 
	d="
M92.848061,400.154999 
	C90.645737,400.078735 88.807236,400.610809 87.105743,399.783539 
	C87.052658,396.297852 89.182030,392.986969 93.730049,389.906219 
	C94.879807,393.532623 96.701584,396.780334 92.848061,400.154999 
z"/>
<path fill="#000000" opacity="1.000000" stroke="none" 
	d="
M239.729218,396.564758 
	C241.688354,394.190369 242.907333,391.617584 245.451965,389.838043 
	C248.135712,392.676727 247.634674,395.927643 246.718124,398.696411 
	C245.882706,401.220093 243.006500,400.133942 240.999756,400.131012 
	C238.507050,400.127411 238.365768,398.687439 239.729218,396.564758 
z"/>
<path fill="#000000" opacity="1.000000" stroke="none" 
	d="
M179.221313,394.259033 
	C179.806625,401.401672 174.864441,399.626099 170.398300,400.199615 
	C171.736343,395.447571 174.942200,392.820221 177.241699,389.661407 
	C179.483276,390.790955 179.099579,392.418152 179.221313,394.259033 
z"/>
<path fill="#000000" opacity="1.000000" stroke="none" 
	d="
M55.664429,391.121521 
	C55.962555,391.756104 56.095467,392.070679 56.111187,392.391052 
	C56.473152,399.768494 56.470776,399.768616 47.850002,399.495575 
	C50.112030,395.921082 50.366562,391.532379 55.664429,391.121521 
z"/>
<path fill="#000000" opacity="1.000000" stroke="none" 
	d="
M187.869110,450.639069 
	C191.610764,450.282928 193.959137,452.481384 193.474701,455.437958 
	C193.231888,456.919952 192.040909,457.646576 191.030777,457.142303 
	C187.971146,455.614960 185.088715,453.732605 182.134216,451.986786 
	C183.977982,449.174805 185.842178,450.707886 187.869110,450.639069 
z"/>
<path fill="#000000" opacity="1.000000" stroke="none" 
	d="
M300.659393,389.980286 
	C302.627197,389.942657 304.231537,390.020264 306.098694,390.110596 
	C306.031647,393.675995 303.420166,395.855347 302.532074,398.725433 
	C302.200623,399.796600 300.782166,400.240662 299.572662,399.630920 
	C298.472809,399.076508 298.409912,397.893250 298.965393,397.090912 
	C300.472687,394.913727 298.514587,392.156311 300.659393,389.980286 
z"/>
<path fill="#000000" opacity="1.000000" stroke="none" 
	d="
M150.737305,398.689819 
	C149.415466,400.363922 148.050308,400.647125 146.706970,399.523285 
	C145.639038,398.629852 145.987442,397.252808 146.602768,396.365387 
	C148.090775,394.219391 146.828720,388.754974 150.990448,390.254669 
	C154.991119,391.696381 150.379883,395.522552 150.737305,398.689819 
z"/>
<path fill="#000000" opacity="1.000000" stroke="none" 
	d="
M135.754303,451.234436 
	C135.826141,454.494568 135.052917,457.015991 131.472214,456.856873 
	C129.082657,456.750763 128.372223,454.536926 128.653259,452.850983 
	C129.496811,447.790558 132.931885,450.509735 135.754303,451.234436 
z"/>
<path fill="#000000" opacity="1.000000" stroke="none" 
	d="
M158.307678,445.237244 
	C156.349503,446.944916 154.542389,447.530884 153.066040,445.305695 
	C152.166809,443.950348 151.078476,442.087128 152.447586,440.768158 
	C154.496155,438.794617 157.001343,439.925598 159.160385,440.411407 
	C160.066040,442.351837 159.135635,443.605927 158.307678,445.237244 
z"/>
<path fill="#000000" opacity="1.000000" stroke="none" 
	d="
M180.353241,453.703308 
	C180.041748,455.932251 179.217331,457.342804 177.088120,456.773865 
	C175.161972,456.259094 174.875916,454.510406 174.889191,452.792847 
	C174.898926,451.531281 175.379181,450.406250 176.825958,450.420105 
	C178.700500,450.438080 180.598312,450.667542 180.353241,453.703308 
z"/>
<path fill="#000000" opacity="1.000000" stroke="none" 
	d="
M173.002090,450.756226 
	C174.870804,454.544006 171.777634,455.381470 169.995743,457.250702 
	C167.323273,455.620300 168.021317,453.495850 168.708115,451.550201 
	C169.457230,449.428101 171.075012,449.678802 173.002090,450.756226 
z"/>
<path fill="#000000" opacity="1.000000" stroke="none" 
	d="
M166.936615,446.755341 
	C164.924438,445.936005 165.026291,444.376678 164.922089,442.928375 
	C164.774673,440.879089 165.687531,439.806274 167.809174,440.051758 
	C169.936722,440.297882 169.861191,441.707855 169.473618,443.303070 
	C169.132141,444.708679 169.176773,446.320496 166.936615,446.755341 
z"/>
</svg>