<svg version="1.1" id="Layer_1" xmlns="http://www.w3.org/2000/svg" xmlns:xlink="http://www.w3.org/1999/xlink" x="0px" y="0px"
	 width="100%" viewBox="0 0 216 233" enable-background="new 0 0 216 233" xml:space="preserve">
<path fill="#000000" opacity="1.000000" stroke="none" 
	d="
M115.000000,234.000000 
	C76.666672,234.000000 38.833340,234.000000 1.000005,234.000000 
	C1.000003,156.333344 1.000003,78.666679 1.000002,1.000010 
	C71.666656,1.000000 142.333374,1.031687 212.999802,0.903591 
	C216.424301,0.897383 217.102005,1.575593 217.096252,5.000128 
	C216.970108,79.999908 216.970123,155.000000 217.096252,229.999786 
	C217.102005,233.424164 216.426620,234.117035 212.999542,234.099426 
	C180.500381,233.932556 148.000015,234.000000 115.000000,234.000000 
z"/>
<path fill="#FBBE0F" opacity="1.000000" stroke="none" 
	d="
M50.888645,115.383980 
	C51.160866,115.233963 51.480827,115.017731 51.653152,114.930626 
	C52.990284,113.600525 54.305984,112.633324 56.437660,112.504112 
	C60.226257,111.661552 63.379864,110.292389 66.162720,107.482170 
	C66.649765,107.168442 66.861649,107.070816 67.401512,106.851234 
	C74.391083,103.993156 80.776253,100.709106 87.211334,96.806450 
	C87.608246,96.419044 87.754623,96.252586 88.145065,95.863548 
	C88.730827,95.366364 89.081970,95.104454 89.711304,94.664314 
	C90.167000,94.355110 90.355690,94.239189 90.846672,93.980423 
	C91.363800,93.776443 91.578644,93.715302 92.125969,93.613449 
	C93.353615,93.526367 94.247253,93.538620 95.466972,93.720657 
	C96.213318,93.963570 96.610367,94.167763 97.249130,94.616005 
	C97.681465,94.956673 97.847008,95.101234 98.238274,95.482162 
	C98.789871,96.015236 99.141922,96.277222 99.819748,96.670692 
	C100.311386,96.971390 100.498360,97.112617 100.924217,97.517868 
	C103.859940,100.398598 101.817223,103.294731 101.479797,106.416901 
	C97.925499,110.703598 92.916840,111.899376 88.524712,114.012459 
	C77.393639,119.367706 67.018394,126.163383 55.645107,131.041748 
	C53.943100,131.771790 52.335258,132.524551 50.066475,132.071167 
	C47.970703,131.027161 46.863297,129.645981 46.496868,127.312202 
	C46.409462,125.165237 45.058323,123.837852 44.809292,121.770615 
	C44.911980,120.163994 45.553768,119.204109 46.639603,118.106583 
	C46.994846,117.680374 47.148846,117.522903 47.584015,117.201538 
	C48.833931,116.630959 49.829327,116.273041 50.888645,115.383980 
z"/>
<path fill="#B7A7D2" opacity="1.000000" stroke="none" 
	d="
M171.621887,73.981903 
	C174.773804,75.379875 174.283234,77.684319 173.419189,80.194214 
	C169.906113,90.399071 166.581223,100.670677 162.925079,110.823364 
	C161.454437,114.907150 161.636597,119.063980 162.196167,123.027351 
	C163.547180,132.596619 165.046402,142.125580 165.005371,151.820465 
	C164.977814,158.332169 162.667419,160.727509 156.070847,160.984985 
	C151.939255,161.146240 147.767960,160.675140 143.371185,162.003067 
	C141.319794,159.186111 142.914124,157.890976 145.619675,157.643265 
	C148.211624,157.405945 150.698639,156.591141 153.725983,156.461609 
	C158.802200,155.775848 160.459106,152.814728 160.521072,148.439224 
	C160.645691,139.637863 158.253708,131.093033 157.963852,122.312241 
	C157.866989,119.378090 157.497345,116.408707 157.572098,113.040329 
	C157.787079,111.034164 159.008987,109.863510 159.491699,107.972687 
	C160.123428,105.912140 160.526703,104.193726 160.848770,102.072540 
	C164.724533,93.188286 167.848297,84.431999 170.731323,75.178772 
	C171.000702,74.606339 171.149734,74.398041 171.621887,73.981903 
z"/>
<path fill="#381D66" opacity="1.000000" stroke="none" 
	d="
M155.224854,157.659775 
	C151.923996,158.399445 148.911819,159.314835 145.750198,159.071609 
	C144.104004,158.944962 142.814133,159.462158 142.826752,161.771896 
	C143.035187,162.163010 142.998505,162.079224 143.041565,162.063843 
	C142.923264,162.184799 142.761887,162.321136 142.761108,162.730621 
	C137.478485,169.630829 135.832581,170.233490 128.033401,166.692062 
	C123.375381,164.576981 118.237495,164.137131 113.308899,161.871826 
	C112.360542,161.230698 112.169357,160.497223 112.438713,159.300446 
	C112.950844,158.520966 113.386887,158.222595 114.289108,157.940796 
	C115.206482,157.792175 115.733055,157.795258 116.640167,157.914352 
	C121.293167,159.358398 125.524353,160.863068 129.761566,162.353745 
	C135.765076,164.465836 136.912033,163.911484 138.960419,157.992004 
	C141.625854,150.289413 144.387466,142.620422 147.005249,134.901352 
	C147.699112,132.855377 148.285522,130.760315 149.924713,128.745956 
	C150.785843,127.969414 151.479828,127.699219 152.624115,127.757065 
	C155.028229,129.551193 154.633636,131.574158 153.858780,133.732513 
	C151.852798,139.320129 149.735367,144.872131 148.046997,150.566681 
	C147.632629,151.964264 146.018829,153.465424 148.346939,154.970917 
	C150.681992,154.919510 152.701553,154.051315 154.932388,155.520721 
	C155.485992,156.272049 155.558136,156.786636 155.224854,157.659775 
z"/>
<path fill="#43296F" opacity="1.000000" stroke="none" 
	d="
M113.093704,158.661316 
	C112.978477,159.752396 112.963943,160.450745 112.948364,161.496490 
	C112.947304,161.843887 112.950195,161.930862 112.907486,161.939163 
	C112.743561,162.092133 112.622345,162.236786 112.315079,162.168091 
	C111.356758,161.916611 110.584511,161.878494 109.425522,161.833252 
	C108.833298,161.781189 108.627808,161.736252 108.125793,161.582565 
	C106.915550,160.923309 105.942223,160.530273 104.577873,160.249451 
	C100.387001,159.873703 96.841278,157.394241 92.510269,158.589905 
	C91.747925,159.230682 91.192291,159.591995 90.296722,160.030426 
	C89.286812,160.008759 87.992867,160.307968 88.476105,159.010086 
	C90.288788,154.141510 87.892982,152.162140 83.537292,151.113861 
	C81.038300,150.512436 78.390030,150.233307 76.014328,148.375244 
	C76.087044,147.168762 76.699791,146.611679 77.772415,145.944901 
	C79.972939,145.205002 81.759270,145.580475 83.486923,146.123093 
	C92.272148,148.882309 100.827797,152.306458 109.573486,155.184784 
	C111.147827,155.702942 112.598923,156.524460 113.093704,158.661316 
z"/>
<path fill="#451566" opacity="1.000000" stroke="none" 
	d="
M51.199387,139.774872 
	C45.891575,142.211197 41.365547,146.260391 35.019608,144.481613 
	C34.748741,143.997665 34.639996,143.794724 34.583885,143.251663 
	C35.688866,141.093872 37.848801,141.331131 39.344288,140.362167 
	C40.567951,139.569305 42.936337,139.610214 41.893127,136.776474 
	C39.923992,133.184387 38.142773,129.864105 36.425117,126.157242 
	C35.874298,125.042557 35.129093,124.937698 34.001728,124.865440 
	C33.484352,124.663834 33.293953,124.542435 32.944534,124.121964 
	C33.612785,122.446411 34.823490,121.855156 36.777351,121.999832 
	C37.685089,121.445137 38.318062,121.156273 39.418991,121.278900 
	C42.922642,124.983971 44.034779,129.753433 46.881439,133.926208 
	C47.851604,136.003220 49.998264,136.157272 51.283348,137.848328 
	C51.549011,138.604492 51.533516,139.057587 51.199387,139.774872 
z"/>
<path fill="#3C164C" opacity="1.000000" stroke="none" 
	d="
M76.237305,127.033363 
	C69.161285,129.599625 63.113777,133.588150 56.424377,137.051773 
	C55.761185,137.067886 55.445129,136.745193 55.085388,136.016418 
	C54.942505,135.458954 54.923454,135.226776 54.962616,134.650696 
	C55.111462,134.094208 55.202099,133.881592 55.498760,133.393204 
	C56.200226,132.660522 56.797024,132.339096 57.554802,131.696075 
	C57.960110,131.346222 58.125881,131.212921 58.564262,130.922882 
	C59.401043,130.547150 59.951443,130.298248 60.732548,129.853363 
	C61.317638,129.500656 61.656673,129.309235 62.247440,128.971390 
	C62.996685,128.515274 63.514465,128.239380 64.244453,127.724075 
	C64.845154,127.316315 65.210770,127.112221 65.885361,126.798775 
	C67.262375,126.479607 68.256416,126.071304 69.434425,125.296921 
	C69.857132,124.976685 70.031769,124.858192 70.473000,124.575378 
	C70.918068,124.305748 71.096535,124.200447 71.812164,123.786316 
	C72.531609,123.378250 72.713905,123.279007 73.178543,123.042847 
	C73.657578,122.831200 73.854294,122.756462 74.358330,122.610306 
	C75.728203,122.331230 76.664162,121.854774 77.803566,121.026001 
	C78.304504,120.773956 78.516678,120.693054 79.057159,120.509766 
	C81.357941,119.778297 83.165665,118.175446 85.708839,119.627747 
	C86.030457,124.186821 81.816643,124.352585 79.283089,126.559814 
	C78.167549,126.837402 77.342346,126.866661 76.237305,127.033363 
z"/>
<path fill="#301D5F" opacity="1.000000" stroke="none" 
	d="
M83.607033,62.612793 
	C85.668533,58.634262 89.511703,58.776901 93.002502,59.153233 
	C97.675758,59.657043 101.006165,58.815369 102.087975,53.377789 
	C102.709358,52.950359 103.200592,53.113556 103.830566,53.884232 
	C104.387016,60.429390 102.869713,65.980286 97.957809,70.588043 
	C97.312027,70.701088 97.049591,70.697769 96.421982,70.561676 
	C94.125557,68.389076 95.364349,66.299026 96.018738,63.952820 
	C96.079063,63.686443 96.074074,63.250107 95.935829,63.102539 
	C94.657104,62.737530 93.531464,63.053154 92.079788,63.083633 
	C91.551338,63.129848 91.340034,63.142063 90.813660,63.165169 
	C90.081100,63.187824 89.663612,63.199654 88.933357,63.248821 
	C88.197746,63.333542 87.774170,63.373135 87.022888,63.441319 
	C85.791100,63.524372 84.907684,63.424683 83.607033,62.612793 
z"/>
<path fill="#381D66" opacity="1.000000" stroke="none" 
	d="
M104.981316,50.468536 
	C107.062950,48.018738 109.146599,48.934242 111.390305,49.743652 
	C117.043350,51.782974 122.762520,53.638996 128.709412,55.836502 
	C129.366440,56.507790 129.530075,56.991901 129.279419,57.917973 
	C126.866653,59.827915 124.639481,58.954170 122.481384,58.145367 
	C117.220352,56.173641 111.891266,54.403191 106.224884,52.391075 
	C105.446541,51.826950 105.129433,51.392372 104.981316,50.468536 
z"/>
<path fill="#2F135B" opacity="1.000000" stroke="none" 
	d="
M82.081726,99.069817 
	C83.406792,93.800369 83.383324,88.819817 82.453690,83.690521 
	C81.874336,80.493919 82.159180,77.140701 82.024612,73.393707 
	C81.354980,72.205978 81.527107,71.528114 82.502098,70.796104 
	C83.414742,70.899590 83.865448,71.188820 84.509880,71.902817 
	C85.067551,72.689049 85.312477,73.181313 85.637383,74.090073 
	C86.232567,76.608322 85.948128,78.785683 86.208870,81.320999 
	C86.008774,83.463379 85.965012,85.202927 86.603294,87.272491 
	C86.876793,88.609001 86.919846,89.586937 86.728302,90.915161 
	C86.588211,91.940193 86.568703,92.620964 86.730774,93.624557 
	C87.103737,94.780663 87.607101,95.552032 87.502571,96.815369 
	C86.496597,98.530067 84.961807,98.966782 83.210014,99.600533 
	C82.669899,99.525345 82.464012,99.439682 82.081726,99.069817 
z"/>
<path fill="#381D66" opacity="1.000000" stroke="none" 
	d="
M151.545044,57.362991 
	C152.337891,57.119362 152.723129,57.316730 152.785416,57.588188 
	C154.626617,65.614670 160.791260,68.358025 167.873108,70.012238 
	C168.676010,70.199806 169.446869,70.531609 169.510117,72.089142 
	C163.100464,73.349556 157.923874,70.493874 152.432678,67.494324 
	C151.673233,66.605408 151.387878,65.882492 150.935669,64.824059 
	C150.868103,62.252121 149.748215,60.016037 151.545044,57.362991 
z"/>
<path fill="#3C164C" opacity="1.000000" stroke="none" 
	d="
M35.147224,142.546417 
	C35.002857,143.086288 34.980232,143.309769 34.907547,143.866913 
	C29.350149,141.763428 28.460615,136.343796 27.219028,131.488693 
	C26.302475,127.904594 28.531406,125.266182 32.455254,123.952011 
	C32.785511,123.822899 32.953739,123.960609 33.041492,124.024765 
	C33.638569,125.025909 33.481667,125.979202 33.055496,127.263275 
	C29.492109,130.957565 31.781496,134.095856 33.429771,137.577530 
	C33.765308,139.480286 35.246193,140.568176 35.147224,142.546417 
z"/>
<path fill="#2F135B" opacity="1.000000" stroke="none" 
	d="
M129.108795,58.259453 
	C128.996735,57.494324 128.983017,57.096848 128.966461,56.401943 
	C135.289352,54.664375 141.780609,54.806419 148.182404,54.093346 
	C149.275162,53.971626 150.056046,54.454388 150.879562,55.632858 
	C150.985931,56.167534 150.844299,56.412338 150.383667,56.935760 
	C145.588821,59.006218 140.800552,57.526939 135.858459,58.575844 
	C134.428329,58.732433 133.485382,59.118809 132.216949,59.733154 
	C130.742233,59.921440 129.843124,59.562267 129.108795,58.259453 
z"/>
<path fill="#3C164C" opacity="1.000000" stroke="none" 
	d="
M68.282639,107.693558 
	C67.745743,107.964409 67.490982,108.013634 66.854218,108.137321 
	C65.896248,109.727829 64.765259,109.845299 63.174324,109.137306 
	C68.113602,103.911659 74.508385,101.209198 81.535248,98.888443 
	C81.905334,98.785606 82.032280,98.940796 82.090195,99.022621 
	C81.990425,101.425186 79.928268,101.533951 78.435150,102.318695 
	C75.149704,104.045456 71.808716,105.665825 68.282639,107.693558 
z"/>
<path fill="#3C2765" opacity="1.000000" stroke="none" 
	d="
M40.100266,122.199219 
	C39.172329,121.984200 38.492023,121.980522 37.474358,121.963623 
	C40.045769,117.517021 45.380119,117.522003 49.825363,115.231644 
	C50.312111,116.530113 49.483833,117.130600 48.210663,117.768494 
	C47.940376,117.932869 48.001854,117.996201 47.975208,117.960556 
	C47.374931,118.772751 46.398373,119.179939 45.576920,120.196350 
	C45.085716,120.987465 44.937660,121.610092 44.329514,122.337494 
	C42.815609,123.149124 41.566513,123.187416 40.100266,122.199219 
z"/>
<path fill="#43296F" opacity="1.000000" stroke="none" 
	d="
M75.961288,127.436676 
	C76.077682,126.022125 76.549377,125.474022 77.924858,125.954941 
	C78.846062,126.566666 79.182076,127.280876 79.342949,128.508331 
	C78.325676,133.181427 77.639954,137.604843 74.060822,141.135590 
	C72.619003,141.326111 72.555527,140.538940 72.365311,139.402435 
	C72.130394,134.839600 75.221642,131.712326 75.961288,127.436676 
z"/>
<path fill="#F9D78E" opacity="1.000000" stroke="none" 
	d="
M62.587189,108.914101 
	C63.976192,109.044403 65.036659,109.411201 66.242058,108.417847 
	C64.526413,111.727379 61.139660,112.622948 57.129478,113.086716 
	C56.636780,112.825439 56.551605,112.603394 56.783726,112.218323 
	C58.815952,111.029068 60.530884,110.002846 62.587189,108.914101 
z"/>
<path fill="#301D5F" opacity="1.000000" stroke="none" 
	d="
M72.221367,139.452621 
	C72.478905,139.535706 72.696503,140.036835 72.976791,140.811417 
	C75.329933,142.267365 77.258797,143.809830 78.118988,146.627930 
	C77.491669,147.270706 76.978859,147.587738 76.161438,147.969254 
	C70.683914,147.090195 72.525810,142.988251 72.221367,139.452621 
z"/>
<path fill="#301D5F" opacity="1.000000" stroke="none" 
	d="
M83.251617,70.755104 
	C82.594093,71.464676 82.329926,71.928207 82.029404,72.660698 
	C80.650673,69.370049 80.071945,65.841248 82.786270,62.281429 
	C83.156013,62.132504 83.488983,62.445183 83.656265,62.600670 
	C85.580467,65.382301 85.478462,67.965622 83.251617,70.755104 
z"/>
<path fill="#301D5F" opacity="1.000000" stroke="none" 
	d="
M99.233353,163.346039 
	C96.322220,164.621613 93.919342,164.358185 91.900696,161.605927 
	C91.876892,161.039627 91.996216,160.815720 92.434395,160.380768 
	C94.852455,159.510239 96.791245,159.937469 98.906128,161.303986 
	C99.463730,162.021759 99.550980,162.507584 99.233353,163.346039 
z"/>
<path fill="#381D66" opacity="1.000000" stroke="none" 
	d="
M108.573898,160.685562 
	C108.920212,160.858551 108.979538,161.343185 109.009163,161.584656 
	C107.206589,163.928589 105.086853,162.584869 102.708748,162.362854 
	C102.152290,162.248428 101.944649,162.096359 101.773300,161.559052 
	C102.393311,160.152115 103.310905,159.822845 104.815842,159.943542 
	C106.235306,160.015930 107.270462,160.044052 108.573898,160.685562 
z"/>
<path fill="#4F2350" opacity="1.000000" stroke="none" 
	d="
M55.409477,134.453064 
	C55.845409,135.245728 55.938805,135.830566 56.101799,136.855499 
	C55.530109,138.580826 54.223976,136.733032 53.028221,137.739136 
	C52.100239,136.884033 52.051964,136.113983 52.557678,134.989105 
	C53.482525,134.166428 54.245167,134.043213 55.409477,134.453064 
z"/>
<path fill="#3C2765" opacity="1.000000" stroke="none" 
	d="
M104.725960,50.122906 
	C105.290115,50.322075 105.544029,50.581478 106.031265,50.984436 
	C106.571487,52.974888 105.598541,53.930462 103.592178,54.405350 
	C102.998940,54.066757 102.780426,53.750111 102.346069,53.243401 
	C102.308235,51.631718 103.681015,51.161469 104.725960,50.122906 
z"/>
<path fill="#3C164C" opacity="1.000000" stroke="none" 
	d="
M56.713650,112.036842 
	C57.038677,112.220741 56.976330,112.386192 56.817966,112.799561 
	C55.319374,113.641327 53.916801,114.235176 52.169849,114.836273 
	C52.259617,112.203339 54.088211,111.784691 56.713650,112.036842 
z"/>
<path fill="#E8C6A0" opacity="1.000000" stroke="none" 
	d="
M48.282520,118.057732 
	C48.639072,117.235695 49.337769,116.538521 50.116901,115.542595 
	C50.197342,115.243843 50.677723,115.172348 50.919296,115.203156 
	C51.089146,116.882301 50.360332,117.965462 48.282520,118.057732 
z"/>
<path fill="#301D5F" opacity="1.000000" stroke="none" 
	d="
M90.169174,160.337845 
	C90.139557,159.585022 90.294754,159.021790 90.644043,158.238403 
	C92.002319,158.186783 92.481438,158.933746 92.404373,160.375763 
	C92.267799,160.716537 92.012711,160.988983 91.885139,161.126251 
	C91.289711,161.018158 90.821846,160.772812 90.169174,160.337845 
z"/>
<path fill="#381D66" opacity="1.000000" stroke="none" 
	d="
M99.317978,163.616913 
	C99.007553,163.265793 98.989906,162.868027 98.948273,162.171539 
	C99.389862,159.851395 100.497978,160.809662 101.705246,161.604675 
	C101.901955,161.893784 102.132072,162.144073 102.245995,162.272278 
	C101.443527,162.790421 100.527138,163.180344 99.317978,163.616913 
z"/>
<path fill="#381D66" opacity="1.000000" stroke="none" 
	d="
M171.873474,73.500992 
	C171.936188,73.978149 171.927353,74.182243 171.869797,74.688881 
	C171.497375,75.340088 171.094208,75.518791 170.289703,75.460861 
	C169.359222,74.929749 169.099258,74.316566 169.100922,73.255920 
	C169.270050,72.788063 169.386200,72.660759 169.675293,72.342552 
	C170.499451,72.510406 171.150696,72.869164 171.873474,73.500992 
z"/>
<path fill="#4F2350" opacity="1.000000" stroke="none" 
	d="
M51.277367,139.985046 
	C50.887623,139.418457 50.795979,138.795609 50.572342,137.719055 
	C50.618603,137.196091 50.796856,137.126846 51.261803,137.045883 
	C51.927189,137.119278 52.262264,137.288177 52.751831,137.753998 
	C52.956692,137.954163 53.039440,138.044312 53.081093,138.089752 
	C52.606987,138.733047 52.091225,139.330902 51.277367,139.985046 
z"/>
<path fill="#381D66" opacity="1.000000" stroke="none" 
	d="
M149.798935,56.420403 
	C150.020905,56.069359 150.242340,56.042480 150.795670,55.969166 
	C151.461044,55.989143 151.723816,56.162682 152.009521,56.665398 
	C151.985107,57.012722 151.867020,57.137985 151.571594,57.450974 
	C150.696671,57.636341 150.156570,57.352802 149.798935,56.420403 
z"/>
<path fill="#381D66" opacity="1.000000" stroke="none" 
	d="
M112.178284,162.120453 
	C112.129013,161.954727 112.497414,161.942337 112.681091,161.944901 
	C112.749741,162.243576 112.728035,162.715225 112.178284,162.120453 
z"/>
<path fill="#B7A7D2" opacity="1.000000" stroke="none" 
	d="
M142.961548,162.764801 
	C142.124542,162.767685 142.164536,162.304565 142.831818,161.894165 
	C143.084641,162.048447 143.001358,162.525818 142.961548,162.764801 
z"/>
<path fill="#E8C6A0" opacity="1.000000" stroke="none" 
	d="
M99.766731,98.272133 
	C99.388153,98.151062 99.470695,98.050117 99.448669,98.111481 
	C98.685081,97.725136 98.166473,97.074890 97.575592,95.940453 
	C96.671852,93.550957 97.563873,92.189743 99.552597,90.927948 
	C105.857452,89.927765 111.635880,88.066597 118.128265,88.610428 
	C120.439285,89.036209 121.431694,90.321480 122.058983,92.457436 
	C122.163559,93.688652 121.974541,94.463593 121.461761,95.551941 
	C121.179573,96.115227 121.044136,96.325371 120.658592,96.805954 
	C119.489296,97.783249 118.478127,98.388908 117.658058,99.703796 
	C117.325493,100.180931 117.177628,100.362358 116.765671,100.777161 
	C116.301666,101.134468 116.101746,101.258385 115.589172,101.545105 
	C113.008102,103.087570 111.494812,105.306259 109.117371,107.098068 
	C108.280548,107.368057 107.778618,107.438271 106.881218,107.488014 
	C102.585587,107.616264 101.105804,105.686325 102.247833,102.035431 
	C102.940559,99.820923 101.615295,99.157661 99.766731,98.272133 
z"/>
<path fill="#C48624" opacity="1.000000" stroke="none" 
	d="
M72.205101,125.618050 
	C71.887497,125.754578 71.531288,125.939484 71.336456,125.987518 
	C69.665001,126.777702 67.934113,126.791481 66.382019,127.989471 
	C66.159645,128.579575 65.984634,128.771515 65.552116,128.964966 
	C64.735809,129.344055 64.039993,129.477356 63.214336,130.054260 
	C62.850544,130.583969 62.618797,130.738510 62.127480,130.855286 
	C61.311695,131.818649 60.282768,131.343689 59.271286,131.888931 
	C59.059952,132.149414 59.103050,132.068893 59.108021,132.114288 
	C58.189472,132.573654 57.228409,132.915436 56.198372,133.762512 
	C55.972790,133.966705 55.998577,134.000610 55.983543,133.984238 
	C54.194351,135.110687 52.604446,134.356522 50.728817,133.324600 
	C50.271767,133.001068 50.111576,132.840729 49.803394,132.373795 
	C49.664738,131.840469 49.674076,131.613754 49.914631,131.137238 
	C58.694302,128.971985 65.758057,123.850212 73.417877,120.034111 
	C82.459450,115.529625 91.367958,110.758064 100.688576,106.045685 
	C104.479836,107.801506 104.796791,109.375015 102.168816,111.475182 
	C101.012070,112.399590 99.272980,112.432236 98.267868,114.221802 
	C97.389450,115.342957 96.518585,115.816963 95.193039,116.184784 
	C94.626503,116.273148 94.402786,116.288300 93.855713,116.291550 
	C92.947021,116.236870 92.369011,116.085052 91.533447,116.292389 
	C91.140541,116.534668 90.989861,116.646561 90.602814,116.919617 
	C90.030350,117.275330 89.687378,117.457024 89.088272,117.796967 
	C88.657188,118.061897 88.476578,118.157951 88.002846,118.352776 
	C87.108315,118.631920 86.519142,118.857399 85.571510,118.965408 
	C82.799202,118.655136 81.252441,120.379509 79.214996,121.757904 
	C78.974022,121.979378 78.992218,121.996742 78.990829,121.985336 
	C77.673050,122.966583 75.831543,122.567574 74.396347,123.959183 
	C74.243851,124.268837 74.128838,124.245613 74.139191,124.187866 
	C73.813751,124.210152 73.542679,124.388535 73.174339,124.852203 
	C73.012344,125.039146 73.000771,124.996056 73.019424,125.008331 
	C72.866280,125.174248 72.694496,125.327888 72.205101,125.618050 
z"/>
<path fill="#D4C6E5" opacity="1.000000" stroke="none" 
	d="
M49.939167,130.577744 
	C50.079479,131.044235 50.013107,131.201035 49.864990,131.599762 
	C49.885258,134.010773 48.649929,134.945206 46.314156,135.166245 
	C43.225437,131.291946 40.444550,127.482628 39.819504,122.307571 
	C40.980862,121.341385 42.081524,120.216309 43.642555,121.933258 
	C45.714085,122.416245 45.991264,124.196739 47.188503,125.528809 
	C48.356106,127.184853 47.858829,129.357941 49.939167,130.577744 
z"/>
<path fill="#4F2350" opacity="1.000000" stroke="none" 
	d="
M97.703461,114.094116 
	C97.615135,111.411652 99.751617,111.293930 101.223358,110.490219 
	C103.458923,109.269363 103.368698,107.925072 101.323898,106.184418 
	C100.515625,104.850754 99.795990,103.857132 100.901939,102.497078 
	C102.214821,100.882553 100.485329,99.898933 99.548180,98.456512 
	C102.814102,97.589882 105.071571,98.220291 103.480095,102.407402 
	C102.385643,105.286842 104.032402,105.800110 106.645767,106.055542 
	C107.521950,106.648338 107.898758,107.184044 108.028282,108.218445 
	C107.993500,108.791801 107.949921,109.020592 107.778107,109.578026 
	C107.422630,110.326530 107.157814,110.721489 106.625076,111.371002 
	C103.848503,113.464882 101.524254,115.947472 97.703461,114.094116 
z"/>
<path fill="#F9D78E" opacity="1.000000" stroke="none" 
	d="
M68.367966,107.962479 
	C69.121620,104.374603 72.792564,104.618492 75.257286,103.088547 
	C77.329170,101.802444 79.596581,100.831306 81.962769,99.412598 
	C83.552010,98.459648 84.955894,97.814850 86.643127,96.982430 
	C87.278755,96.545799 87.656364,96.511475 88.230438,96.910828 
	C82.646553,102.223412 75.536720,104.836914 68.367966,107.962479 
z"/>
<path fill="#3C164C" opacity="1.000000" stroke="none" 
	d="
M100.009140,91.895958 
	C98.798317,92.991692 98.021034,93.953354 98.028610,95.621033 
	C98.357262,96.361771 98.322289,96.740486 97.546448,97.024628 
	C97.199600,96.984962 96.886307,96.620728 96.857941,96.382187 
	C96.682785,95.764458 96.541275,95.383293 96.231705,94.748871 
	C94.632339,93.472008 93.338516,94.286049 91.735748,94.898071 
	C91.449257,95.008514 91.316277,94.887886 91.258759,94.818954 
	C90.386116,94.537239 89.908691,93.973663 89.592545,92.830742 
	C89.714005,91.922455 89.977219,91.475739 90.689270,90.878021 
	C95.114792,87.909500 99.402954,85.920456 104.854874,87.464417 
	C105.494225,88.150581 105.646217,88.650169 105.520233,89.576355 
	C104.036674,91.443939 101.881210,90.680466 100.009140,91.895958 
z"/>
<path fill="#43296F" opacity="1.000000" stroke="none" 
	d="
M90.008804,92.650124 
	C90.544487,93.341934 90.786835,93.798080 91.115204,94.502136 
	C91.201241,94.750031 91.124916,95.122284 91.063301,95.302017 
	C90.898506,95.876945 90.712761,96.228516 90.146591,96.589005 
	C89.609589,96.727631 89.370461,96.813705 88.768234,97.029976 
	C88.086266,97.038506 87.767403,96.916855 87.187508,96.794998 
	C86.346703,96.375374 85.766914,95.955940 85.092926,95.281166 
	C85.914490,94.202339 86.386330,92.958122 87.893173,92.247490 
	C88.765152,92.104851 89.252243,92.195610 90.008804,92.650124 
z"/>
<path fill="#3C164C" opacity="1.000000" stroke="none" 
	d="
M47.300804,125.497314 
	C46.990871,126.447685 46.707214,127.514427 45.955399,126.063560 
	C45.371372,124.936501 44.774200,123.816254 44.065247,122.386200 
	C44.078266,121.539841 44.208912,121.000252 44.507458,120.236618 
	C45.131744,119.918030 45.448967,120.096230 45.647316,120.821609 
	C46.180004,122.485229 46.712261,123.835518 47.300804,125.497314 
z"/>
<path fill="#E8C6A0" opacity="1.000000" stroke="none" 
	d="
M91.894737,95.138023 
	C92.947906,93.919716 94.140144,91.942970 96.656380,93.479843 
	C96.791206,93.946381 96.743660,94.207718 96.298431,94.444481 
	C94.713913,94.702446 93.527061,94.984985 91.894737,95.138023 
z"/>
<path fill="#E8C6A0" opacity="1.000000" stroke="none" 
	d="
M45.911575,120.903557 
	C45.428062,120.892746 45.208374,120.650536 44.832024,120.210449 
	C44.947746,118.606094 46.010368,118.133171 47.590366,117.886597 
	C48.220406,119.397606 46.774128,119.761368 45.911575,120.903557 
z"/>
<path fill="#4F2350" opacity="1.000000" stroke="none" 
	d="
M97.347641,97.284103 
	C97.439835,96.796761 97.644760,96.575813 97.932495,96.128784 
	C98.383995,96.490730 98.717384,97.046021 99.238701,97.887077 
	C98.782990,97.976311 98.139336,97.779778 97.347641,97.284103 
z"/>
<path fill="#4F2350" opacity="1.000000" stroke="none" 
	d="
M96.016144,94.733032 
	C96.101212,94.243538 96.291939,94.057213 96.655846,93.772995 
	C96.860191,94.233192 96.881630,94.781334 96.866325,95.736565 
	C96.596901,95.777817 96.364212,95.411980 96.016144,94.733032 
z"/>
<path fill="#E8C6A0" opacity="1.000000" stroke="none" 
	d="
M90.116524,96.537506 
	C90.068184,96.350014 90.287636,96.058479 90.754395,95.624352 
	C90.795898,95.798996 90.590111,96.116226 90.116524,96.537506 
z"/>
<path fill="#2F135B" opacity="1.000000" stroke="none" 
	d="
M155.380859,158.028229 
	C154.989548,157.572693 154.977707,157.152771 154.983231,156.418121 
	C158.198364,153.132721 158.360092,149.454147 158.036606,145.359543 
	C157.596741,139.791931 157.201904,134.224762 156.501709,128.331100 
	C155.942276,127.099464 157.601135,125.460419 155.198944,125.230957 
	C154.418121,125.343201 153.990646,125.189842 153.351013,124.650131 
	C152.705963,123.708481 152.599060,122.968254 152.522934,121.833221 
	C152.472260,121.198212 152.447296,120.943512 152.447433,120.304443 
	C152.551758,119.411293 152.664551,118.910065 152.913574,118.043930 
	C154.189224,115.138794 154.634003,112.131577 157.926605,110.679779 
	C158.852631,110.756088 159.229065,111.074371 159.332886,111.958771 
	C159.090454,124.677521 161.443832,136.815903 162.340942,149.078522 
	C162.717499,154.225739 161.116394,157.380661 155.380859,158.028229 
z"/>
<path fill="#3C2765" opacity="1.000000" stroke="none" 
	d="
M169.567871,75.097687 
	C170.343643,75.021477 170.765823,75.015244 171.504547,75.000214 
	C170.163437,84.479828 165.849548,93.112373 162.897003,102.580643 
	C162.524261,102.901375 162.298859,102.872505 161.785675,102.659073 
	C161.045212,101.937431 160.808395,101.307724 160.682281,100.288223 
	C160.675186,99.734604 160.688705,99.514450 160.770935,98.974243 
	C161.049576,98.055145 161.375610,97.499008 161.535843,96.557327 
	C161.795410,95.235603 162.189819,94.271378 162.445801,92.940460 
	C162.634415,91.990967 162.805054,91.363220 162.965836,90.382172 
	C165.211624,85.137283 164.537903,79.038292 169.567871,75.097687 
z"/>
<path fill="#43296F" opacity="1.000000" stroke="none" 
	d="
M159.468033,112.091904 
	C158.980011,112.006355 158.735794,111.681526 158.241867,111.180801 
	C156.025330,108.828423 156.760727,106.914734 158.944809,104.937912 
	C160.909119,104.899445 160.764175,106.075943 160.826324,107.558365 
	C160.491821,109.254936 160.101837,110.553772 159.468033,112.091904 
z"/>
<path fill="#3C2765" opacity="1.000000" stroke="none" 
	d="
M161.029877,107.645462 
	C160.600143,107.184311 160.318481,106.412521 160.007858,105.322601 
	C159.298798,104.076645 159.598862,103.199905 160.377747,102.084610 
	C160.865692,101.760406 161.093979,101.686188 161.638733,101.783768 
	C162.092316,102.113785 162.229431,102.272003 162.558121,102.680237 
	C162.225769,104.398445 161.701859,105.866631 161.029877,107.645462 
z"/>
<path fill="#FAF8FC" opacity="1.000000" stroke="none" 
	d="
M161.242310,101.770096 
	C160.670334,102.793686 160.312744,103.574280 159.967010,104.679672 
	C159.285172,106.763275 158.591461,108.522087 157.944946,110.642899 
	C156.275345,113.116722 155.752380,115.747650 154.918518,118.590134 
	C154.840790,119.111748 154.700897,119.259613 154.465393,119.697464 
	C154.224152,120.109802 154.078522,120.232162 153.948822,120.639420 
	C153.368973,121.793564 152.959549,122.704048 153.403015,124.089294 
	C153.480896,124.598740 153.487518,124.806244 153.422882,125.317871 
	C152.813599,126.498627 151.948807,127.155350 151.630783,128.489166 
	C147.800369,139.522186 143.983917,150.250946 140.132568,160.967163 
	C138.136169,166.522079 136.959473,167.088547 131.220261,165.160538 
	C126.351662,163.525009 121.520493,161.778046 116.292160,160.054596 
	C115.829422,159.879166 115.747284,159.729507 115.452026,159.721786 
	C114.761726,159.606491 114.284546,159.349289 113.400185,159.073059 
	C101.589882,155.001556 90.186760,150.949066 78.394058,146.925125 
	C75.759018,145.811493 73.400566,144.775986 73.079552,141.432053 
	C74.463943,137.208206 75.888405,133.331558 77.535858,129.173462 
	C79.997597,125.864906 83.120483,123.991310 86.424477,122.416451 
	C92.125565,119.699036 97.561920,116.474892 103.288887,113.799393 
	C107.995667,111.600502 112.032272,108.527580 115.282120,104.309471 
	C118.117729,100.629036 121.532700,97.404015 124.831253,94.105255 
	C125.899765,93.036690 127.848045,92.248993 126.791031,89.780922 
	C125.387596,86.539253 122.854477,87.654068 120.323120,87.560257 
	C115.122047,87.158775 110.532867,89.782364 105.317154,88.416451 
	C99.856613,88.212395 95.394302,90.277138 90.621307,92.764854 
	C88.893410,90.840385 89.907127,88.999199 90.442940,87.132019 
	C91.668091,82.862541 93.687393,78.879364 95.085373,74.287827 
	C95.584396,72.847122 96.040794,71.784317 96.835526,70.506325 
	C100.574944,65.800499 100.996307,60.109173 103.181168,54.750526 
	C104.104820,53.471157 104.992188,52.558910 106.072067,51.387329 
	C114.104469,51.790745 120.941330,55.656425 128.630585,57.952492 
	C129.784973,58.257801 130.559494,58.623802 131.666138,58.958755 
	C134.949860,57.552055 137.273483,59.695190 140.236145,60.408558 
	C144.604996,62.006973 148.764206,63.158504 152.661346,65.832420 
	C158.192978,68.182800 163.432404,70.288589 168.912857,72.654869 
	C169.317429,73.453461 169.480972,73.991554 169.783005,74.778687 
	C168.261063,80.068047 166.600632,85.108376 164.950287,90.523407 
	C164.583099,91.370277 164.508392,91.944870 164.258057,92.755798 
	C163.685715,94.016632 163.269089,95.034378 162.874191,96.383453 
	C162.783371,97.320244 161.761032,97.601028 162.171204,98.695396 
	C162.059586,98.957932 161.961304,99.007172 161.984680,99.056915 
	C161.240067,99.780418 161.599854,100.711037 161.242310,101.770096 
z"/>
<path fill="#F7F4FA" opacity="1.000000" stroke="none" 
	d="
M157.392761,127.081680 
	C159.495712,134.354858 159.775833,141.774643 160.581848,149.126434 
	C160.981079,152.768005 160.515976,155.909332 155.384003,156.046814 
	C152.957550,156.369446 150.914505,156.635483 148.479370,156.865768 
	C146.823090,155.728073 146.585144,154.433411 147.104645,152.834488 
	C149.677750,144.915237 152.981583,137.240967 155.027740,129.142868 
	C155.267624,128.193436 155.992599,127.429893 157.392761,127.081680 
z"/>
<path fill="#C0AED5" opacity="1.000000" stroke="none" 
	d="
M157.880325,126.689987 
	C154.397858,136.717468 150.669312,146.209610 148.047012,156.446228 
	C146.803894,156.996460 145.502609,157.484161 144.120041,156.529984 
	C147.280014,147.394165 150.450653,138.227554 153.463425,128.353760 
	C153.169312,126.657310 153.768784,126.025017 154.634491,125.186256 
	C155.544144,123.205521 156.212585,121.443405 157.259872,118.682617 
	C158.393082,121.789894 157.907639,124.063805 157.880325,126.689987 
z"/>
<path fill="#43296F" opacity="1.000000" stroke="none" 
	d="
M151.856750,128.699875 
	C151.982773,127.666504 152.334274,126.534386 152.838409,125.200821 
	C153.658386,125.661156 153.758408,126.455734 153.489395,127.743797 
	C153.443130,128.161728 153.501511,128.199127 153.506500,128.231750 
	C153.035080,128.376617 152.558640,128.488861 151.856750,128.699875 
z"/>
<path fill="#43296F" opacity="1.000000" stroke="none" 
	d="
M115.341805,159.922516 
	C115.391769,159.693115 115.567802,159.664444 115.839279,159.903259 
	C115.911552,160.028809 115.444702,159.981339 115.341805,159.922516 
z"/>
<path fill="#EEE5F5" opacity="1.000000" stroke="none" 
	d="
M102.063019,161.589645 
	C101.059647,161.802368 100.217346,161.710953 99.149658,161.746185 
	C96.933083,161.646454 94.798988,162.340103 92.628113,160.833679 
	C91.870461,160.005997 91.473122,159.295471 90.956963,158.301590 
	C90.747253,155.882202 91.035187,154.672867 93.852829,155.437668 
	C97.396759,156.399628 100.621971,158.517883 104.758774,158.663010 
	C105.377922,159.292664 105.504242,159.745438 105.162430,160.521973 
	C104.013893,160.955826 103.118988,161.120667 102.063019,161.589645 
z"/>
<path fill="#B7A7D2" opacity="1.000000" stroke="none" 
	d="
M105.308243,160.842102 
	C104.916908,160.364838 104.925026,159.938690 105.000244,159.199738 
	C106.401649,159.012192 107.856636,158.802673 108.824921,160.532959 
	C107.849373,160.870102 106.778526,160.881653 105.308243,160.842102 
z"/>
<path fill="#E92D77" opacity="1.000000" stroke="none" 
	d="
M32.615929,139.144180 
	C31.408474,137.272995 30.590973,135.666458 29.622108,134.157104 
	C27.674595,131.123184 28.309690,128.762100 31.668629,126.847672 
	C33.397022,125.472366 35.018143,124.708710 37.269390,124.704247 
	C39.432655,128.326691 41.238285,131.787735 43.101143,135.607178 
	C40.576153,140.649826 37.995163,141.530426 32.615929,139.144180 
z"/>
<path fill="#B71F78" opacity="1.000000" stroke="none" 
	d="
M32.353401,139.144592 
	C36.123238,139.699783 39.331261,138.105331 42.817734,136.115082 
	C46.221825,138.661880 44.712605,140.205078 41.854202,141.618729 
	C39.921104,142.574753 37.998070,143.207062 35.429779,142.888199 
	C34.154442,141.726410 33.283394,140.590012 32.353401,139.144592 
z"/>
<path fill="#B7A7D2" opacity="1.000000" stroke="none" 
	d="
M45.993259,135.485718 
	C47.051876,134.161026 48.156277,133.191757 49.521961,132.032104 
	C49.783245,131.841721 49.948097,131.870697 50.019684,131.914047 
	C50.662838,132.449570 51.348751,132.818939 51.845886,133.865387 
	C51.971252,135.246384 52.056992,136.273712 50.929398,137.206726 
	C50.561123,137.302658 50.509186,137.252380 50.474770,137.258865 
	C48.496719,138.263275 46.745255,138.667328 45.993259,135.485718 
z"/>
<path fill="#C0AED5" opacity="1.000000" stroke="none" 
	d="
M37.532299,124.537140 
	C35.995411,125.472054 34.363800,126.078476 32.376297,126.728668 
	C32.315155,126.063896 32.609898,125.355347 33.016945,124.367859 
	C34.548725,124.727341 36.049965,122.423317 37.532299,124.537140 
z"/>
<path fill="#D4C6E5" opacity="1.000000" stroke="none" 
	d="
M127.598999,88.827927 
	C130.878906,90.534294 129.297592,91.950882 127.904823,93.610832 
	C116.959709,106.655594 104.195465,117.253624 88.247696,123.731804 
	C84.868744,125.104362 81.700615,126.995918 78.097107,128.770203 
	C77.899071,128.181747 78.039284,127.471443 78.178535,126.397476 
	C79.819397,122.914742 83.305550,122.466866 86.147224,120.063751 
	C86.787590,118.808449 87.341667,118.406372 88.291077,117.960480 
	C90.217812,117.006439 91.711029,115.941841 93.757851,115.270309 
	C94.944664,114.720352 95.867737,114.384933 97.152489,113.915466 
	C100.708954,114.001724 102.809776,111.573372 105.702621,110.248146 
	C106.200966,109.755875 106.469536,109.516243 107.001312,109.203369 
	C107.259537,109.124519 107.169060,109.222900 107.222137,109.263519 
	C107.459259,108.646797 107.869415,108.109398 108.459335,107.306915 
	C110.884499,105.437561 112.561676,103.276833 114.798233,101.207642 
	C115.202438,100.811447 115.365021,100.653870 115.779541,100.268524 
	C116.031471,100.040771 116.002136,100.000305 116.018936,100.020378 
	C116.920158,98.556992 117.996315,97.256271 119.784164,96.201569 
	C120.047043,96.019829 120.006073,95.993721 120.016693,96.015411 
	C120.504379,95.307457 121.002022,94.591850 121.662445,93.584351 
	C122.859756,90.823837 124.351501,88.895760 127.598999,88.827927 
z"/>
<path fill="#B17B4C" opacity="1.000000" stroke="none" 
	d="
M79.351341,121.932404 
	C79.997597,119.036697 82.171738,117.865044 85.785797,118.147957 
	C86.554550,118.741531 86.572929,119.149460 86.274696,119.817207 
	C86.089119,120.071121 86.161362,120.021645 86.189453,120.054939 
	C83.536949,118.818367 81.926140,121.410988 79.351341,121.932404 
z"/>
<path fill="#B17B4C" opacity="1.000000" stroke="none" 
	d="
M51.145020,133.882401 
	C50.699085,133.157883 50.380608,132.800293 50.076698,132.200058 
	C52.173645,131.643845 53.293396,133.901733 55.615089,133.930420 
	C55.968506,133.967865 55.880405,134.320679 55.816208,134.490784 
	C55.085388,134.876297 54.418762,135.091721 53.410583,135.388092 
	C52.170452,135.503952 51.667938,134.955490 51.145020,133.882401 
z"/>
<path fill="#B17B4C" opacity="1.000000" stroke="none" 
	d="
M74.580078,124.246979 
	C74.402237,121.517502 76.548920,122.145576 78.596893,121.956306 
	C77.892441,123.196037 76.399841,123.702385 74.580078,124.246979 
z"/>
<path fill="#B17B4C" opacity="1.000000" stroke="none" 
	d="
M66.603485,128.294708 
	C66.762123,126.016998 68.589485,126.051231 70.753281,126.014816 
	C69.742111,126.779137 68.342590,127.522720 66.603485,128.294708 
z"/>
<path fill="#B17B4C" opacity="1.000000" stroke="none" 
	d="
M56.287445,133.935028 
	C56.189934,132.566864 57.097462,132.055191 58.763359,132.114517 
	C58.276028,132.740906 57.439064,133.322128 56.287445,133.935028 
z"/>
<path fill="#B17B4C" opacity="1.000000" stroke="none" 
	d="
M59.388702,132.165100 
	C59.536694,131.288300 60.331135,130.984039 61.585121,130.897034 
	C61.185390,131.323364 60.451424,131.752060 59.388702,132.165100 
z"/>
<path fill="#B17B4C" opacity="1.000000" stroke="none" 
	d="
M63.359245,130.261398 
	C63.564426,129.925537 64.098015,129.498795 64.998474,129.051514 
	C64.806122,129.410828 64.246887,129.790665 63.359245,130.261398 
z"/>
<path fill="#B17B4C" opacity="1.000000" stroke="none" 
	d="
M72.139450,125.744926 
	C72.060738,125.482201 72.293564,125.277672 72.812012,125.080788 
	C72.822517,125.258827 72.606964,125.497055 72.139450,125.744926 
z"/>
<path fill="#B17B4C" opacity="1.000000" stroke="none" 
	d="
M73.279831,124.994751 
	C73.232109,124.791267 73.451874,124.543381 73.910599,124.212814 
	C73.948807,124.403534 73.748062,124.676949 73.279831,124.994751 
z"/>
<path fill="#FAF8FC" opacity="1.000000" stroke="none" 
	d="
M82.936882,71.332993 
	C83.078674,68.484306 81.789330,65.873222 83.576950,63.097496 
	C84.475029,62.439651 85.126518,62.123142 86.051880,61.821072 
	C86.725204,61.895058 87.085045,61.801788 87.684425,61.471283 
	C88.423065,61.315125 88.882568,61.243420 89.688644,61.224731 
	C90.197456,61.322697 90.359718,61.367653 90.754913,61.315010 
	C92.997269,60.967880 95.006683,60.718349 97.449463,60.493675 
	C98.327637,61.044868 98.521774,61.651443 98.280701,62.796165 
	C97.932037,65.433289 97.042641,67.369316 96.043655,69.634796 
	C96.051155,70.889801 96.640083,71.693344 96.368355,72.952934 
	C94.633095,75.801048 94.370293,78.863251 92.909561,81.831360 
	C92.551323,82.574043 92.335960,82.998650 92.060715,83.791260 
	C90.636337,86.787231 90.807167,90.038795 88.290268,92.455612 
	C87.162117,92.877464 86.416084,92.860123 85.376389,92.239632 
	C84.958511,91.089012 84.846413,90.182243 84.824188,88.942253 
	C84.247551,86.713158 84.613068,84.736160 84.317841,82.405838 
	C83.886208,79.865181 83.594154,77.718819 83.434303,75.197830 
	C83.848526,74.414192 83.861351,74.005783 83.385086,73.303696 
	C83.142769,72.561165 83.079140,72.113007 82.936882,71.332993 
z"/>
<path fill="#F7F4FA" opacity="1.000000" stroke="none" 
	d="
M96.508270,72.899414 
	C95.631111,72.075981 95.008087,71.309998 95.819427,70.176712 
	C96.180656,70.027237 96.349907,70.064278 96.771744,70.162643 
	C97.468430,71.122528 97.947815,72.021103 96.508270,72.899414 
z"/>
<path fill="#F7F4FA" opacity="1.000000" stroke="none" 
	d="
M98.323105,63.074665 
	C98.046906,62.646381 97.997635,62.038685 97.915588,60.974754 
	C99.935104,60.797062 98.620659,62.020744 98.323105,63.074665 
z"/>
<path fill="#F7F4FA" opacity="1.000000" stroke="none" 
	d="
M87.662552,61.326679 
	C87.609413,61.523346 87.255280,61.659859 86.613449,61.815941 
	C86.671021,61.645847 87.016289,61.456184 87.662552,61.326679 
z"/>
<path fill="#F7F4FA" opacity="1.000000" stroke="none" 
	d="
M90.745453,61.165768 
	C90.987846,61.217403 90.658600,61.472107 90.658600,61.472107 
	C90.658600,61.472107 90.253548,61.457989 90.144379,61.367867 
	C90.035202,61.277744 90.503067,61.114132 90.745453,61.165768 
z"/>
<path fill="#F7F4FA" opacity="1.000000" stroke="none" 
	d="
M85.012405,92.371262 
	C85.809753,91.999077 86.548889,92.002380 87.657608,92.007477 
	C88.199348,92.157936 88.371529,92.306602 88.338737,92.728081 
	C87.644974,94.130516 86.976639,95.066864 85.327736,95.163803 
	C84.983887,94.266136 84.969048,93.506439 85.012405,92.371262 
z"/>
<path fill="#F7F4FA" opacity="1.000000" stroke="none" 
	d="
M84.115715,82.427048 
	C85.394272,83.787132 84.913574,85.794212 84.936264,88.169304 
	C83.753700,86.817261 84.258888,84.776833 84.115715,82.427048 
z"/>
<path fill="#F7F4FA" opacity="1.000000" stroke="none" 
	d="
M83.154602,73.329590 
	C83.345596,73.402229 83.484795,73.795120 83.595245,74.505615 
	C83.411926,74.432091 83.257362,74.040977 83.154602,73.329590 
z"/>
<path fill="#EEE5F5" opacity="1.000000" stroke="none" 
	d="
M149.354736,56.070381 
	C150.188095,56.489277 150.576721,56.882320 151.179810,57.457031 
	C152.344650,59.568359 152.733047,61.607536 152.293640,63.940948 
	C148.183945,65.186623 145.212082,62.772629 141.550476,61.570068 
	C138.665298,60.356499 135.739594,60.060799 133.868652,57.386292 
	C138.948822,57.202862 143.855927,55.478298 149.354736,56.070381 
z"/>
<path fill="#2F135B" opacity="1.000000" stroke="none" 
	d="
M141.173660,60.651482 
	C144.804260,61.791470 148.037781,62.857967 151.636566,64.027603 
	C152.255539,64.610497 152.509262,65.090256 152.858276,65.823517 
	C148.600540,65.614090 144.712570,63.723698 140.394730,61.948406 
	C139.944595,61.185287 140.186752,60.778343 141.173660,60.651482 
z"/>
<path fill="#3C2765" opacity="1.000000" stroke="none" 
	d="
M141.292389,60.476746 
	C141.211685,60.936089 140.852646,61.147205 140.272278,61.578804 
	C137.578033,60.952564 135.105133,60.105835 132.315247,59.093410 
	C132.138504,58.097126 132.305115,57.284821 133.609741,57.026665 
	C135.723572,59.313793 138.689011,59.066055 141.292389,60.476746 
z"/>
<path fill="#451566" opacity="1.000000" stroke="none" 
	d="
M50.938698,133.900513 
	C51.520824,134.011353 52.024086,134.507233 52.798187,135.236084 
	C53.045204,136.090179 53.021381,136.711304 52.977127,137.643311 
	C52.407825,137.868469 51.858959,137.782761 50.935608,137.499863 
	C50.660690,136.296967 50.760262,135.291275 50.938698,133.900513 
z"/>
<path fill="#370C6B" opacity="1.000000" stroke="none" 
	d="
M127.938751,88.586266 
	C126.206467,90.610428 124.502007,92.242432 122.504578,94.014038 
	C121.919273,94.245392 121.626945,94.337143 120.965569,94.154999 
	C120.787949,92.512329 119.996910,91.489967 119.150887,90.183746 
	C118.622391,89.589409 118.400223,89.173851 118.253906,88.361359 
	C118.539520,86.913139 119.364159,86.550743 120.637619,86.199432 
	C123.640244,85.496635 127.127762,82.650627 127.938751,88.586266 
z"/>
<path fill="#EAD2D2" opacity="1.000000" stroke="none" 
	d="
M118.589767,87.886078 
	C118.897858,88.600929 118.920097,88.989189 118.935928,89.667999 
	C112.684174,89.603699 106.724480,91.691170 100.117081,92.090965 
	C100.405678,89.679733 102.516571,90.271729 104.603058,89.887856 
	C109.204849,87.748260 113.676315,87.187721 118.589767,87.886078 
z"/>
<path fill="#43296F" opacity="1.000000" stroke="none" 
	d="
M115.716980,100.724213 
	C113.774879,103.231949 111.690353,105.505463 109.308907,107.931549 
	C108.641808,107.668243 108.477852,107.182724 108.691994,106.268677 
	C110.652275,103.925026 112.440643,101.940269 114.538147,99.817734 
	C115.046936,99.988365 115.287148,100.260368 115.716980,100.724213 
z"/>
<path fill="#2F135B" opacity="1.000000" stroke="none" 
	d="
M119.827316,95.613655 
	C119.627411,97.941719 117.878662,98.770058 116.372879,100.058060 
	C115.359909,97.050049 117.943123,96.468269 119.827316,95.613655 
z"/>
<path fill="#3C164C" opacity="1.000000" stroke="none" 
	d="
M108.556236,105.965469 
	C108.904640,106.391785 108.945374,106.873795 108.999039,107.719955 
	C108.613838,108.444603 108.215706,108.805099 107.546387,109.234863 
	C107.191872,108.528282 107.108528,107.752426 107.016983,106.585640 
	C107.422050,106.136856 107.835304,106.079002 108.556236,105.965469 
z"/>
<path fill="#2F135B" opacity="1.000000" stroke="none" 
	d="
M120.244995,94.087280 
	C120.866768,93.921265 121.137016,93.961418 121.809433,94.077599 
	C121.689934,94.776848 121.168266,95.400063 120.336952,96.030182 
	C118.548813,95.565941 119.552917,94.904236 120.244995,94.087280 
z"/>
<path fill="#2F135B" opacity="1.000000" stroke="none" 
	d="
M116.041138,100.755028 
	C115.609283,100.693710 115.359161,100.428978 114.978165,99.922104 
	C115.100464,99.556862 115.353653,99.433769 115.819153,99.675728 
	C116.095268,100.211052 116.159065,100.381340 116.041138,100.755028 
z"/>
<path fill="#4F2350" opacity="1.000000" stroke="none" 
	d="
M93.787338,115.027542 
	C93.913483,117.866127 91.118347,117.535553 89.331505,118.836639 
	C88.634628,118.751427 88.277023,118.605606 87.766998,118.211479 
	C87.611183,117.773140 87.608940,117.580292 87.843910,117.221855 
	C88.081116,117.056259 88.031181,117.012062 88.022797,117.044327 
	C88.407463,116.569435 89.009499,116.514557 89.812347,116.201904 
	C90.059242,116.043861 89.993484,116.023407 90.017189,116.048431 
	C90.647606,115.286568 91.463493,114.852486 92.758194,114.777298 
	C93.093185,114.893585 93.553085,114.999321 93.787338,115.027542 
z"/>
<path fill="#B17B4C" opacity="1.000000" stroke="none" 
	d="
M92.993057,114.652008 
	C92.293533,115.258766 91.493874,115.623940 90.367554,116.031281 
	C90.450905,114.591888 90.787834,112.984993 92.993057,114.652008 
z"/>
<path fill="#B17B4C" opacity="1.000000" stroke="none" 
	d="
M87.781586,117.062698 
	C88.081116,117.056259 88.005219,117.482025 87.937668,117.687439 
	C87.633034,118.277100 87.294746,118.492889 86.541969,118.386879 
	C86.245308,118.261200 86.091881,118.090080 86.016464,118.002472 
	C86.454712,117.632957 86.968384,117.351044 87.781586,117.062698 
z"/>
<path fill="#B17B4C" opacity="1.000000" stroke="none" 
	d="
M89.757629,116.060677 
	C89.579185,116.374405 89.099129,116.704948 88.316742,117.056046 
	C88.494949,116.743561 88.975487,116.410522 89.757629,116.060677 
z"/>
<path fill="#3C164C" opacity="1.000000" stroke="none" 
	d="
M107.008545,109.220901 
	C107.013809,109.398354 106.768082,109.672180 106.229507,109.973145 
	C106.210281,109.772606 106.483917,109.544937 107.008545,109.220901 
z"/>
<path fill="#3C2765" opacity="1.000000" stroke="none" 
	d="
M88.494026,92.989693 
	C88.133774,93.000885 88.089294,92.504120 88.058228,92.256691 
	C89.034958,89.323906 90.042747,86.638550 91.070618,83.590103 
	C91.199013,83.029999 91.307312,82.832977 91.555916,82.329308 
	C92.896957,79.049225 94.097687,76.075806 95.646011,72.991127 
	C95.993614,72.879875 96.190979,73.173866 96.363525,73.215538 
	C95.109436,79.681770 92.478691,85.705513 90.256943,92.340683 
	C90.180550,92.790535 90.277878,92.800659 90.290009,92.843216 
	C89.819519,92.916687 89.336899,92.947594 88.494026,92.989693 
z"/>
<path fill="#3C2765" opacity="1.000000" stroke="none" 
	d="
M119.055794,87.966270 
	C114.403397,87.841469 110.155640,89.299782 105.387024,89.804184 
	C104.981773,89.432861 104.982010,89.075142 104.983429,88.449127 
	C110.008400,87.404213 115.032196,86.627586 120.479813,85.907578 
	C120.347748,86.549431 119.791862,87.134659 119.055794,87.966270 
z"/>
<path fill="#381D66" opacity="1.000000" stroke="none" 
	d="
M153.702698,128.012146 
	C153.315018,127.374237 153.186920,126.586746 153.024933,125.399323 
	C152.989624,124.802849 152.988190,124.606316 153.509460,124.262573 
	C154.162506,124.355621 154.332214,124.563766 154.708496,124.853714 
	C154.571228,125.932617 154.266754,126.897598 153.702698,128.012146 
z"/>
<path fill="#43296F" opacity="1.000000" stroke="none" 
	d="
M154.075729,123.714882 
	C154.032150,124.115372 153.697723,124.054375 153.534134,124.008255 
	C153.504059,123.097450 153.637589,122.232773 153.867950,121.146194 
	C154.016296,121.721001 154.067795,122.517693 154.075729,123.714882 
z"/>
<path fill="#43296F" opacity="1.000000" stroke="none" 
	d="
M154.562424,119.883423 
	C154.480972,119.744644 154.596710,119.504036 154.848846,119.114746 
	C155.054016,119.276871 154.978806,119.548706 154.562424,119.883423 
z"/>
<path fill="#43296F" opacity="1.000000" stroke="none" 
	d="
M162.276215,98.734238 
	C162.242538,98.314423 162.425491,97.670914 162.752197,96.871094 
	C162.761581,97.313377 162.627213,97.911964 162.276215,98.734238 
z"/>
<path fill="#43296F" opacity="1.000000" stroke="none" 
	d="
M161.259949,102.002190 
	C161.237610,101.217224 161.447296,100.421349 161.832520,99.366074 
	C162.005432,99.819283 162.002823,100.531891 161.977692,101.600037 
	C161.955185,101.955559 161.491974,101.991287 161.259949,102.002190 
z"/>
<path fill="#43296F" opacity="1.000000" stroke="none" 
	d="
M164.306396,92.786179 
	C164.273727,92.458588 164.445099,91.918289 164.788422,91.138062 
	C164.810394,91.456573 164.660416,92.015030 164.306396,92.786179 
z"/>
<path fill="#3C2765" opacity="1.000000" stroke="none" 
	d="
M144.884949,86.890869 
	C147.643066,90.685745 145.634720,93.871086 143.212448,96.831444 
	C140.999527,99.535973 137.945694,101.238174 134.635284,103.061279 
	C133.815598,103.555534 133.401779,103.488998 133.043213,102.555344 
	C137.324921,98.609428 143.261932,96.480362 143.978760,89.355545 
	C144.385864,88.392517 144.219543,87.653931 144.884949,86.890869 
z"/>
<path fill="#2F135B" opacity="1.000000" stroke="none" 
	d="
M145.183594,86.350250 
	C144.952591,87.317635 144.733322,87.923203 144.284058,88.759384 
	C142.697876,85.139610 140.449371,83.081039 136.150314,84.967018 
	C135.392792,85.299347 134.380753,85.449791 133.987656,84.527382 
	C133.494385,83.369942 134.407227,82.694695 135.315781,82.215668 
	C138.579910,80.494713 142.911621,82.161194 145.183594,86.350250 
z"/>
<path fill="#43296F" opacity="1.000000" stroke="none" 
	d="
M132.711472,102.284729 
	C133.289551,102.407768 133.557678,102.648766 134.066101,103.016769 
	C132.937836,104.295540 131.485291,105.363304 130.224747,106.623169 
	C129.012543,107.834724 127.999016,109.245071 126.932915,110.526321 
	C126.641357,106.486229 129.665955,104.539299 132.711472,102.284729 
z"/>
<path fill="#3C164C" opacity="1.000000" stroke="none" 
	d="
M86.077988,118.567146 
	C86.604561,118.171730 86.963821,118.082253 87.596588,117.942818 
	C88.140457,118.093796 88.410812,118.294731 88.837273,118.695053 
	C88.240967,119.306252 87.488548,119.718056 86.412628,120.100494 
	C85.972572,119.816315 85.822586,119.570038 85.754478,119.302887 
	C85.723358,119.180832 85.853607,119.017632 86.077988,118.567146 
z"/>
<path fill="#F7F4FA" opacity="1.000000" stroke="none" 
	d="
M91.550888,82.199127 
	C91.783348,82.365852 91.717354,82.676521 91.294479,83.090836 
	C91.130295,82.919052 91.235237,82.635246 91.550888,82.199127 
z"/>
</svg>