<svg version="1.1" id="Layer_1" xmlns="http://www.w3.org/2000/svg" xmlns:xlink="http://www.w3.org/1999/xlink" x="0px" y="0px"
	 width="90%" viewBox="0 0 719 1024" enable-background="new 0 0 719 1024" xml:space="preserve">
<path fill="#000000" opacity="1.000000" stroke="none" 
	d="
M358.000000,1025.000000 
	C238.666672,1025.000000 119.833336,1025.000000 1.000000,1025.000000 
	C1.000000,683.666687 1.000000,342.333344 1.000000,1.000000 
	C240.666672,1.000000 480.333344,1.000000 720.000000,1.000000 
	C720.000000,342.333344 720.000000,683.666687 720.000000,1025.000000 
	C599.500000,1025.000000 479.000000,1025.000000 358.000000,1025.000000 
M465.220917,590.035706 
	C464.930695,590.520630 464.640472,591.005615 464.037354,591.842346 
	C463.848267,592.102234 463.727814,592.390869 463.219574,593.003296 
	C462.943451,593.468567 462.667328,593.933838 461.984924,594.846680 
	C461.451202,595.690002 460.917480,596.533325 459.977234,597.826294 
	C459.444427,598.672729 458.911621,599.519165 457.966400,600.825867 
	C457.417572,601.693237 456.868744,602.560547 455.927979,603.847534 
	C455.566345,604.516174 455.204712,605.184753 454.315948,606.175964 
	C453.821472,607.066101 453.326965,607.956299 452.303375,609.164795 
	C451.810028,610.055481 451.316681,610.946106 450.340363,612.110413 
	C450.077454,612.597046 449.814545,613.083679 449.166382,613.891968 
	C449.044403,614.200378 448.922424,614.508728 448.319672,615.095337 
	C448.054443,615.581055 447.789215,616.066711 447.150757,616.885315 
	C447.031677,617.193970 446.912628,617.502625 446.314240,618.091248 
	C446.035034,618.569519 445.755829,619.047791 445.123962,619.874207 
	C444.925110,620.149902 444.809235,620.456970 444.296967,621.078247 
	C444.018036,621.558228 443.739105,622.038147 443.111755,622.867554 
	C442.912476,623.141174 442.795990,623.446411 442.285187,624.072876 
	C441.998199,624.550293 441.711243,625.027710 441.089722,625.860229 
	C440.896820,626.132812 440.781738,626.434998 440.267242,627.059692 
	C439.983002,627.540588 439.698761,628.021545 439.082672,628.855713 
	C438.888428,629.124573 438.770416,629.423523 438.253296,630.052856 
	C437.964203,630.533936 437.675140,631.015015 437.065002,631.850830 
	C436.875366,632.116882 436.756805,632.411560 436.232880,633.038452 
	C435.946014,633.523621 435.659149,634.008789 435.054626,634.846680 
	C434.864288,635.109070 434.744110,635.400391 434.235321,636.011230 
	C433.957123,636.474854 433.678925,636.938538 432.990295,637.855347 
	C432.453552,638.716980 431.916809,639.578674 430.983917,640.865173 
	C430.616364,641.539307 430.248779,642.213440 429.352631,643.208069 
	C428.856781,644.096436 428.360962,644.984802 427.340698,646.199585 
	C426.845337,647.088806 426.349976,647.978027 425.367615,649.138855 
	C425.119263,649.635071 424.870911,650.131287 424.212402,650.923706 
	C424.088104,651.233093 423.963806,651.542419 423.357361,652.129822 
	C423.105530,652.623047 422.853729,653.116272 422.199341,653.913818 
	C422.075500,654.222900 421.951691,654.531982 421.344940,655.116516 
	C421.088135,655.606567 420.831299,656.096558 420.179626,656.898682 
	C420.055725,657.206909 419.931793,657.515137 419.330292,658.105408 
	C419.069061,658.592407 418.807831,659.079407 418.163452,659.890076 
	C418.041931,660.198547 417.920410,660.507019 417.319336,661.094849 
	C417.053040,661.579590 416.786743,662.064331 416.148621,662.882751 
	C416.029114,663.190918 415.909637,663.499084 415.311432,664.088684 
	C415.033051,664.567688 414.754700,665.046692 414.123230,665.872803 
	C413.923584,666.147827 413.807068,666.454407 413.294647,667.078003 
	C413.007721,667.554871 412.720795,668.031677 412.096771,668.864685 
	C411.904205,669.139771 411.791016,669.444336 411.280975,670.069702 
	C410.995392,670.548157 410.709808,671.026611 410.089996,671.860291 
	C409.897034,672.132690 409.781677,672.434753 409.266815,673.059326 
	C408.982697,673.540344 408.698547,674.021301 408.082001,674.854858 
	C407.886780,675.123108 407.768250,675.421753 407.251068,676.052185 
	C406.961456,676.533447 406.671814,677.014709 406.063019,677.851501 
	C405.874512,678.117676 405.756775,678.412231 405.232635,679.037964 
	C404.945862,679.523438 404.659088,680.008911 404.054016,680.847290 
	C403.863220,681.109924 403.743073,681.401672 403.233948,682.013062 
	C402.955383,682.477295 402.676849,682.941589 401.989685,683.853394 
	C401.456665,684.700378 400.923645,685.547302 399.983795,686.842102 
	C399.450562,687.686829 398.917328,688.531494 397.977386,689.826111 
	C397.444244,690.673035 396.911102,691.520020 395.970764,692.813110 
	C395.437775,693.654053 394.904755,694.495056 393.958221,695.779358 
	C393.428528,696.626099 392.898834,697.472839 391.916290,698.817627 
	C385.247864,708.681763 378.579437,718.545837 371.210571,729.446106 
	C401.591064,724.415466 424.628448,733.502563 440.010315,760.034363 
	C441.463043,757.925537 442.515717,756.479370 443.484741,754.979126 
	C513.294495,646.893066 583.097229,538.802429 652.901978,430.713165 
	C657.442383,423.682587 657.436707,422.131012 652.267212,415.446899 
	C651.068237,413.896606 649.516357,412.567230 647.955261,411.357544 
	C638.412476,403.962738 627.148254,400.263000 615.778503,397.067902 
	C611.087341,395.749634 605.995300,395.737671 601.067017,395.423065 
	C597.487488,395.194519 595.127136,396.992615 593.043396,400.125977 
	C577.187866,423.968353 561.091675,447.650513 545.109009,471.408539 
	C524.481750,502.070740 503.890381,532.757141 482.874603,563.869934 
	C482.342560,564.723145 481.810516,565.576355 480.863861,566.863586 
	C480.328064,567.717529 479.792236,568.571411 478.842560,569.856689 
	C478.314148,570.711426 477.785706,571.566101 476.834717,572.846802 
	C476.302460,573.702637 475.770203,574.558411 474.836456,575.813660 
	C474.485413,576.476196 474.134338,577.138794 473.257477,578.123108 
	C472.756897,579.005005 472.256317,579.886963 471.238281,581.099976 
	C470.740479,581.986084 470.242676,582.872192 469.234467,584.100830 
	C468.734711,584.983337 468.234924,585.865784 467.250671,587.041077 
	C466.959503,587.525208 466.668365,588.009277 466.056396,588.846741 
	C465.864746,589.110474 465.744263,589.403442 465.220917,590.035706 
M649.142273,339.729645 
	C646.759094,339.874237 644.375916,340.018799 641.126648,340.022766 
	C638.484863,340.422882 634.594910,339.847473 633.399109,341.377594 
	C623.946350,353.472992 615.007263,365.969727 605.651306,378.695099 
	C610.142212,379.343964 614.013123,379.903229 618.410522,380.878662 
	C620.604004,381.535767 622.797546,382.192871 625.627075,383.214325 
	C627.746765,383.823578 629.866455,384.432800 632.481567,385.545685 
	C634.979248,386.394501 637.476990,387.243347 640.399963,388.610840 
	C642.270264,389.397888 644.140625,390.184937 646.453247,391.487152 
	C649.760498,393.400879 653.067749,395.314606 656.776672,397.791565 
	C658.252197,398.847473 659.727722,399.903412 661.511108,401.532410 
	C663.791809,404.325867 666.072510,407.119324 668.508850,410.103424 
	C674.410156,400.464966 679.801941,390.763885 686.106140,381.697235 
	C689.894409,376.248962 689.334167,371.344604 687.154846,365.174469 
	C686.118469,362.776703 685.082031,360.378906 683.971069,357.285858 
	C680.311340,353.903503 676.651611,350.521118 672.349243,346.851746 
	C670.230103,345.945068 668.110901,345.038391 665.393555,343.744995 
	C662.925720,342.896973 660.457947,342.048981 657.232483,340.939026 
	C654.821350,340.630524 652.410278,340.321991 649.142273,339.729645 
M702.806519,349.881500 
	C704.500793,344.557343 706.789185,339.340210 707.771362,333.887787 
	C710.163391,320.609283 708.786011,318.249939 697.000610,311.853516 
	C695.711487,311.153870 694.336365,310.612488 692.513794,309.509094 
	C677.842102,300.993134 657.665527,307.882477 651.317749,323.575592 
	C673.881653,327.007629 691.041504,334.859863 700.406128,353.261871 
	C701.072083,352.176147 701.647095,351.238678 702.806519,349.881500 
M362.788910,746.891235 
	C361.666351,748.044250 359.837708,749.033752 359.526978,750.374878 
	C354.748871,770.995544 350.148041,791.657471 345.617981,812.334412 
	C345.440887,813.142883 346.380463,814.195984 347.185425,815.753845 
	C352.152893,818.563477 357.120331,821.373169 362.641357,824.495911 
	C373.001892,816.805603 384.219452,808.475098 395.441437,800.150635 
	C406.631012,791.850220 417.825043,783.555847 428.899658,775.345825 
	C421.825470,755.317017 405.826111,743.370361 387.289886,744.270752 
	C386.865662,744.316589 386.441467,744.362366 385.362061,744.163635 
	C384.906403,744.224792 384.450714,744.285889 383.116119,744.202942 
	C379.407654,744.422363 375.699219,744.641724 371.525238,744.509949 
	C370.452118,744.792847 369.379028,745.075684 367.739471,745.233215 
	C367.175018,745.328308 366.610596,745.423401 365.606384,745.136963 
	C364.899811,745.642151 364.193237,746.147400 362.788910,746.891235 
M154.279083,893.434082 
	C299.708527,895.058289 445.137970,896.682495 590.456116,898.305481 
	C608.650208,823.499451 620.147949,571.305725 607.256897,530.950623 
	C606.568542,531.953979 605.898376,532.881775 605.278259,533.841980 
	C563.759216,598.128235 522.235291,662.411438 480.735260,726.710022 
	C470.451019,742.644043 460.255310,758.635254 449.996368,774.585632 
	C447.801392,777.998230 446.186554,782.223938 443.145538,784.577942 
	C428.272461,796.091248 412.929688,806.994995 397.904053,818.314758 
	C385.019684,828.021301 372.285706,837.930176 359.586823,847.879272 
	C350.279938,855.170898 341.155182,862.694458 331.913391,870.069702 
	C328.158112,873.066589 324.008881,873.719604 319.881317,871.040222 
	C315.833344,868.412354 314.362823,864.545898 315.584198,859.770142 
	C315.913788,858.481262 316.113953,857.157898 316.472748,855.878174 
	C320.486053,841.564148 323.519684,827.062378 328.453369,812.893005 
	C334.100830,796.673584 335.993500,779.183411 340.281250,762.440979 
	C343.150848,751.235901 344.374786,739.914185 351.488708,729.451965 
	C427.092499,618.263550 502.090332,506.662903 577.144714,395.101593 
	C581.253479,388.994293 584.452576,382.265656 587.908386,375.737976 
	C588.460938,374.694336 588.315369,373.163300 588.178162,371.891510 
	C587.320618,363.945251 586.254517,356.020233 585.479431,348.066559 
	C583.294922,325.650269 581.691833,303.204559 584.937012,280.759125 
	C586.162903,272.280365 587.956055,263.883606 589.526611,255.251602 
	C559.821472,255.251602 530.162903,255.255219 500.504333,255.249481 
	C491.215149,255.247681 488.910431,253.002457 489.018494,243.859802 
	C489.349426,215.863846 489.724670,187.868393 490.077881,159.872696 
	C490.100037,158.115723 490.080750,156.358215 490.080750,154.444382 
	C346.399078,141.096329 203.361954,127.808136 60.014164,114.491096 
	C59.845825,116.399017 59.702911,117.690697 59.621761,118.986237 
	C57.231091,157.152527 58.229889,195.283890 61.337238,233.352859 
	C65.810814,288.159851 75.090866,342.321869 83.570457,396.597443 
	C89.453522,434.253357 94.993034,471.978638 99.749939,509.790710 
	C105.220665,553.276794 108.114677,596.993652 109.356453,640.827515 
	C110.849670,693.536499 109.105873,746.144531 104.636559,798.643738 
	C101.968414,829.985352 98.155067,861.229492 94.761429,893.419373 
	C114.054222,893.419373 133.687531,893.419373 154.279083,893.434082 
M556.314331,208.186371 
	C539.850830,193.850311 523.387390,179.514252 506.923920,165.178192 
	C506.495087,165.463974 506.066223,165.749771 505.637360,166.035568 
	C505.637360,190.290955 505.637360,214.546341 505.637360,238.741882 
	C532.760376,238.741882 559.997864,238.741882 588.602600,238.741882 
	C577.360229,228.098465 567.096497,218.381546 556.314331,208.186371 
M334.855896,831.205017 
	C332.620667,838.732910 330.385437,846.260803 328.150238,853.788696 
	C328.316681,853.803772 328.483154,853.818909 328.649628,853.833984 
	C334.150787,845.668945 339.651917,837.503845 345.188782,829.285767 
	C340.422974,825.706665 337.307648,825.861023 334.855896,831.205017 
z"/>
<path fill="#F2F2F2" opacity="1.000000" stroke="none" 
	d="
M153.799957,893.426758 
	C133.687531,893.419373 114.054222,893.419373 94.761429,893.419373 
	C98.155067,861.229492 101.968414,829.985352 104.636559,798.643738 
	C109.105873,746.144531 110.849670,693.536499 109.356453,640.827515 
	C108.114677,596.993652 105.220665,553.276794 99.749939,509.790710 
	C94.993034,471.978638 89.453522,434.253357 83.570457,396.597443 
	C75.090866,342.321869 65.810814,288.159851 61.337238,233.352859 
	C58.229889,195.283890 57.231091,157.152527 59.621761,118.986237 
	C59.702911,117.690697 59.845825,116.399017 60.014164,114.491096 
	C203.361954,127.808136 346.399078,141.096329 490.080750,154.444382 
	C490.080750,156.358215 490.100037,158.115723 490.077881,159.872696 
	C489.724670,187.868393 489.349426,215.863846 489.018494,243.859802 
	C488.910431,253.002457 491.215149,255.247681 500.504333,255.249481 
	C530.162903,255.255219 559.821472,255.251602 589.526611,255.251602 
	C587.956055,263.883606 586.162903,272.280365 584.937012,280.759125 
	C581.691833,303.204559 583.294922,325.650269 585.479431,348.066559 
	C586.254517,356.020233 587.320618,363.945251 588.178162,371.891510 
	C588.315369,373.163300 588.460938,374.694336 587.908386,375.737976 
	C584.452576,382.265656 581.253479,388.994293 577.144714,395.101593 
	C502.090332,506.662903 427.092499,618.263550 351.488708,729.451965 
	C344.374786,739.914185 343.150848,751.235901 340.281250,762.440979 
	C335.993500,779.183411 334.100830,796.673584 328.453369,812.893005 
	C323.519684,827.062378 320.486053,841.564148 316.472748,855.878174 
	C316.113953,857.157898 315.913788,858.481262 315.584198,859.770142 
	C314.362823,864.545898 315.833344,868.412354 319.881317,871.040222 
	C324.008881,873.719604 328.158112,873.066589 331.913391,870.069702 
	C341.155182,862.694458 350.279938,855.170898 359.586823,847.879272 
	C372.285706,837.930176 385.019684,828.021301 397.904053,818.314758 
	C412.929688,806.994995 428.272461,796.091248 443.145538,784.577942 
	C446.186554,782.223938 447.801392,777.998230 449.996368,774.585632 
	C460.255310,758.635254 470.451019,742.644043 480.735260,726.710022 
	C522.235291,662.411438 563.759216,598.128235 605.278259,533.841980 
	C605.898376,532.881775 606.568542,531.953979 607.256897,530.950623 
	C620.147949,571.305725 608.650208,823.499451 590.456116,898.305481 
	C445.137970,896.682495 299.708527,895.058289 153.799957,893.426758 
z"/>
<path fill="#DF6F22" opacity="1.000000" stroke="none" 
	d="
M483.283569,563.433105 
	C503.890381,532.757141 524.481750,502.070740 545.109009,471.408539 
	C561.091675,447.650513 577.187866,423.968353 593.043396,400.125977 
	C595.127136,396.992615 597.487488,395.194519 601.067017,395.423065 
	C605.995300,395.737671 611.087341,395.749634 615.778503,397.067902 
	C627.148254,400.263000 638.412476,403.962738 647.955261,411.357544 
	C649.516357,412.567230 651.068237,413.896606 652.267212,415.446899 
	C657.436707,422.131012 657.442383,423.682587 652.901978,430.713165 
	C583.097229,538.802429 513.294495,646.893066 443.484741,754.979126 
	C442.515717,756.479370 441.463043,757.925537 440.010315,760.034363 
	C424.628448,733.502563 401.591064,724.415466 371.210571,729.446106 
	C378.579437,718.545837 385.247864,708.681763 392.335022,698.782471 
	C392.889160,698.883179 393.024536,699.019043 393.142456,699.419312 
	C393.256714,699.917847 393.388428,700.151978 393.520142,700.386108 
	C393.686768,699.914795 393.853394,699.443542 394.008301,698.985840 
	C393.996582,698.999390 393.970764,699.024231 394.255920,698.992004 
	C394.702271,698.630798 394.863434,698.301880 395.012634,697.986328 
	C395.000671,697.999695 394.978516,698.028076 395.307190,697.942810 
	C396.096832,696.895996 396.557739,695.934448 397.008972,694.985840 
	C396.999298,694.998779 396.977631,695.022766 397.341309,695.019531 
	C398.141968,694.002136 398.578918,692.987915 399.007355,691.985962 
	C398.998840,691.998108 398.978241,692.019531 399.331421,692.070984 
	C402.136810,689.230225 404.662354,686.396667 407.029999,683.436829 
	C433.113251,650.829529 459.203735,618.227966 485.227539,585.573242 
	C507.622681,557.471741 530.432373,529.681091 552.127075,501.047119 
	C569.892639,477.598999 586.522095,453.272461 603.124084,428.972504 
	C607.359375,422.773560 610.016663,415.354401 612.576416,408.201508 
	C614.365051,403.203247 611.761169,400.519501 606.438660,400.999268 
	C601.020386,401.487732 596.273987,403.151855 592.856934,408.091675 
	C562.183167,452.433685 531.379028,496.685516 500.598938,540.953918 
	C495.189819,548.733459 489.714600,556.466980 484.029541,564.016846 
	C483.620636,563.685608 483.452118,563.559326 483.283569,563.433105 
z"/>
<path fill="#ECE9FD" opacity="1.000000" stroke="none" 
	d="
M556.573547,208.425507 
	C567.096497,218.381546 577.360229,228.098465 588.602600,238.741882 
	C559.997864,238.741882 532.760376,238.741882 505.637360,238.741882 
	C505.637360,214.546341 505.637360,190.290955 505.637360,166.035568 
	C506.066223,165.749771 506.495087,165.463974 506.923920,165.178192 
	C523.387390,179.514252 539.850830,193.850311 556.573547,208.425507 
z"/>
<path fill="#CAA79C" opacity="1.000000" stroke="none" 
	d="
M387.917969,744.410400 
	C405.826111,743.370361 421.825470,755.317017 428.899658,775.345825 
	C417.825043,783.555847 406.631012,791.850220 395.441437,800.150635 
	C384.219452,808.475098 373.001892,816.805603 362.641357,824.495911 
	C357.120331,821.373169 352.152893,818.563477 347.281738,815.233887 
	C350.386047,809.191467 353.156708,803.523193 356.444763,798.172791 
	C368.017365,779.341919 382.371185,763.812195 405.000519,758.432556 
	C405.541748,758.303894 405.983551,757.757141 406.666351,757.265198 
	C403.343964,751.511230 398.219604,748.742493 392.518738,746.673462 
	C390.921753,746.093872 389.448181,745.174133 387.917969,744.410400 
z"/>
<path fill="#E2CFC8" opacity="1.000000" stroke="none" 
	d="
M387.603943,744.340576 
	C389.448181,745.174133 390.921753,746.093872 392.518738,746.673462 
	C398.219604,748.742493 403.343964,751.511230 406.666351,757.265198 
	C405.983551,757.757141 405.541748,758.303894 405.000519,758.432556 
	C382.371185,763.812195 368.017365,779.341919 356.444763,798.172791 
	C353.156708,803.523193 350.386047,809.191467 347.088928,814.924561 
	C346.380463,814.195984 345.440887,813.142883 345.617981,812.334412 
	C350.148041,791.657471 354.748871,770.995544 359.526978,750.374878 
	C359.837708,749.033752 361.666351,748.044250 363.527710,746.844299 
	C364.859711,746.371033 365.452911,745.944763 366.046143,745.518494 
	C366.610596,745.423401 367.175018,745.328308 368.398773,745.487122 
	C370.035645,745.447754 371.013214,745.154480 371.990753,744.861145 
	C375.699219,744.641724 379.407654,744.422363 383.706726,744.467529 
	C384.870667,744.624207 385.443939,744.516235 386.017242,744.408203 
	C386.441467,744.362366 386.865662,744.316589 387.603943,744.340576 
z"/>
<path fill="#F963E0" opacity="1.000000" stroke="none" 
	d="
M702.222168,350.301208 
	C701.647095,351.238678 701.072083,352.176147 700.406128,353.261871 
	C691.041504,334.859863 673.881653,327.007629 651.317749,323.575592 
	C657.665527,307.882477 677.842102,300.993134 692.805420,310.105530 
	C694.374023,313.212799 695.631836,315.733612 696.931274,318.232727 
	C702.190857,328.347504 702.427551,339.287018 702.222168,350.301208 
z"/>
<path fill="#DE9B01" opacity="1.000000" stroke="none" 
	d="
M656.375000,397.228333 
	C653.067749,395.314606 649.760498,393.400879 646.385864,390.929382 
	C654.722839,377.511871 663.159241,364.672791 671.482971,351.761047 
	C672.332275,350.443542 672.505066,348.689972 672.991882,347.138763 
	C676.651611,350.521118 680.311340,353.903503 683.702637,357.785400 
	C682.310425,359.487152 680.978577,360.554474 680.097534,361.914001 
	C675.241089,369.407593 670.597778,377.040680 665.671509,384.487152 
	C662.773865,388.867249 659.486877,392.989868 656.375000,397.228333 
z"/>
<path fill="#F4E60B" opacity="1.000000" stroke="none" 
	d="
M617.883972,380.462494 
	C614.013123,379.903229 610.142212,379.343964 605.651306,378.695099 
	C615.007263,365.969727 623.946350,353.472992 633.399109,341.377594 
	C634.594910,339.847473 638.484863,340.422882 641.554199,340.451660 
	C641.528748,341.914307 641.207031,343.033020 640.602051,343.968536 
	C635.041626,352.566833 629.362366,361.089111 623.871155,369.731018 
	C621.677917,373.182709 619.868286,376.878052 617.883972,380.462494 
z"/>
<path fill="#E8BA05" opacity="1.000000" stroke="none" 
	d="
M639.974670,388.092163 
	C637.476990,387.243347 634.979248,386.394501 632.275635,384.936707 
	C632.744629,383.011749 633.310852,381.625244 634.111755,380.391052 
	C640.321838,370.821106 646.677856,361.343964 652.763184,351.695801 
	C654.837524,348.406982 656.266357,344.710938 657.990112,341.200958 
	C660.457947,342.048981 662.925720,342.896973 665.686279,344.298950 
	C665.630249,345.762360 665.427124,346.765594 664.910889,347.567200 
	C657.538940,359.013855 650.083374,370.406921 642.761597,381.885376 
	C641.554932,383.777191 640.890015,386.014526 639.974670,388.092163 
z"/>
<path fill="#E3AA03" opacity="1.000000" stroke="none" 
	d="
M640.187317,388.351501 
	C640.890015,386.014526 641.554932,383.777191 642.761597,381.885376 
	C650.083374,370.406921 657.538940,359.013855 664.910889,347.567200 
	C665.427124,346.765594 665.630249,345.762360 665.985352,344.492310 
	C668.110901,345.038391 670.230103,345.945068 672.670532,346.995239 
	C672.505066,348.689972 672.332275,350.443542 671.482971,351.761047 
	C663.159241,364.672791 654.722839,377.511871 646.164673,390.671814 
	C644.140625,390.184937 642.270264,389.397888 640.187317,388.351501 
z"/>
<path fill="#E4B605" opacity="1.000000" stroke="none" 
	d="
M687.171936,365.921326 
	C689.334167,371.344604 689.894409,376.248962 686.106140,381.697235 
	C679.801941,390.763885 674.410156,400.464966 668.508850,410.103424 
	C666.072510,407.119324 663.791809,404.325867 661.691345,401.211670 
	C662.848816,400.047760 664.083557,399.372955 664.762451,398.334625 
	C670.180786,390.048126 675.405762,381.634216 680.889343,373.391968 
	C682.680298,370.700012 685.060974,368.400391 687.171936,365.921326 
z"/>
<path fill="#EDCA07" opacity="1.000000" stroke="none" 
	d="
M657.611328,341.070007 
	C656.266357,344.710938 654.837524,348.406982 652.763184,351.695801 
	C646.677856,361.343964 640.321838,370.821106 634.111755,380.391052 
	C633.310852,381.625244 632.744629,383.011749 632.027954,384.684875 
	C629.866455,384.432800 627.746765,383.823578 625.317993,382.668518 
	C625.750854,380.482635 626.299988,378.718170 627.265381,377.222290 
	C634.022034,366.752563 640.913818,356.369843 647.631592,345.875519 
	C648.748169,344.131104 649.226074,341.977814 649.999146,340.013489 
	C652.410278,340.321991 654.821350,340.630524 657.611328,341.070007 
z"/>
<path fill="#F2D909" opacity="1.000000" stroke="none" 
	d="
M649.570679,339.871582 
	C649.226074,341.977814 648.748169,344.131104 647.631592,345.875519 
	C640.913818,356.369843 634.022034,366.752563 627.265381,377.222290 
	C626.299988,378.718170 625.750854,380.482635 625.000000,382.486359 
	C622.797546,382.192871 620.604004,381.535767 618.147217,380.670593 
	C619.868286,376.878052 621.677917,373.182709 623.871155,369.731018 
	C629.362366,361.089111 635.041626,352.566833 640.602051,343.968536 
	C641.207031,343.033020 641.528748,341.914307 641.987305,340.521973 
	C644.375916,340.018799 646.759094,339.874237 649.570679,339.871582 
z"/>
<path fill="#E2A902" opacity="1.000000" stroke="none" 
	d="
M687.163391,365.547913 
	C685.060974,368.400391 682.680298,370.700012 680.889343,373.391968 
	C675.405762,381.634216 670.180786,390.048126 664.762451,398.334625 
	C664.083557,399.372955 662.848816,400.047760 661.537415,400.925171 
	C659.727722,399.903412 658.252197,398.847473 656.575806,397.509949 
	C659.486877,392.989868 662.773865,388.867249 665.671509,384.487152 
	C670.597778,377.040680 675.241089,369.407593 680.097534,361.914001 
	C680.978577,360.554474 682.310425,359.487152 683.739929,358.133057 
	C685.082031,360.378906 686.118469,362.776703 687.163391,365.547913 
z"/>
<path fill="#BB4AA8" opacity="1.000000" stroke="none" 
	d="
M702.514282,350.091370 
	C702.427551,339.287018 702.190857,328.347504 696.931274,318.232727 
	C695.631836,315.733612 694.374023,313.212799 693.049072,310.349854 
	C694.336365,310.612488 695.711487,311.153870 697.000610,311.853516 
	C708.786011,318.249939 710.163391,320.609283 707.771362,333.887787 
	C706.789185,339.340210 704.500793,344.557343 702.514282,350.091370 
z"/>
<path fill="#F1F1F1" opacity="1.000000" stroke="none" 
	d="
M334.962677,830.817444 
	C337.307648,825.861023 340.422974,825.706665 345.188782,829.285767 
	C339.651917,837.503845 334.150787,845.668945 328.649628,853.833984 
	C328.483154,853.818909 328.316681,853.803772 328.150238,853.788696 
	C330.385437,846.260803 332.620667,838.732910 334.962677,830.817444 
z"/>
<path fill="#CAA79C" opacity="1.000000" stroke="none" 
	d="
M371.757996,744.685547 
	C371.013214,745.154480 370.035645,745.447754 368.682007,745.549805 
	C369.379028,745.075684 370.452118,744.792847 371.757996,744.685547 
z"/>
<path fill="#DF6F22" opacity="1.000000" stroke="none" 
	d="
M471.755737,580.768921 
	C472.256317,579.886963 472.756897,579.005005 473.720764,578.147583 
	C474.317596,578.295837 474.451080,578.419556 474.434906,578.804565 
	C473.710144,579.884521 473.135040,580.703125 472.358704,581.333740 
	C472.023590,581.020142 471.889679,580.894531 471.755737,580.768921 
z"/>
<path fill="#DF6F22" opacity="1.000000" stroke="none" 
	d="
M481.278442,566.429565 
	C481.810516,565.576355 482.342560,564.723145 483.079102,563.651489 
	C483.452118,563.559326 483.620636,563.685608 483.931061,564.305054 
	C483.466827,565.601868 482.860718,566.405701 482.016907,567.006592 
	C481.612305,566.678894 481.445374,566.554199 481.278442,566.429565 
z"/>
<path fill="#DF6F22" opacity="1.000000" stroke="none" 
	d="
M479.256409,569.425354 
	C479.792236,568.571411 480.328064,567.717529 481.071167,566.646606 
	C481.445374,566.554199 481.612305,566.678894 481.921753,567.296509 
	C481.452454,568.588928 480.840668,569.388489 479.992889,569.988342 
	C479.590057,569.667480 479.423248,569.546387 479.256409,569.425354 
z"/>
<path fill="#DF6F22" opacity="1.000000" stroke="none" 
	d="
M477.257263,572.420837 
	C477.785706,571.566101 478.314148,570.711426 479.049500,569.640991 
	C479.423248,569.546387 479.590057,569.667480 479.902344,570.280518 
	C479.435272,571.572693 478.822723,572.372925 477.979095,572.975952 
	C477.584442,572.659546 477.420868,572.540161 477.257263,572.420837 
z"/>
<path fill="#DF6F22" opacity="1.000000" stroke="none" 
	d="
M475.237946,575.414246 
	C475.770203,574.558411 476.302460,573.702637 477.045990,572.633789 
	C477.420868,572.540161 477.584442,572.659546 477.892487,573.270142 
	C477.419281,574.558289 476.801636,575.355286 475.955292,575.957642 
	C475.563721,575.646851 475.400818,575.530518 475.237946,575.414246 
z"/>
<path fill="#DF6F22" opacity="1.000000" stroke="none" 
	d="
M392.561462,698.533447 
	C392.898834,697.472839 393.428528,696.626099 394.355377,695.762085 
	C394.887360,695.873352 395.022186,696.001770 395.105164,696.444397 
	C395.028442,697.181763 395.003479,697.604919 394.978516,698.028076 
	C394.978516,698.028076 395.000671,697.999695 394.753174,698.058167 
	C394.327393,698.419189 394.149078,698.721680 393.970764,699.024231 
	C393.970764,699.024231 393.996582,698.999390 393.792847,699.029297 
	C393.589081,699.059204 393.159943,699.154846 393.159943,699.154846 
	C393.024536,699.019043 392.889160,698.883179 392.561462,698.533447 
z"/>
<path fill="#DF6F22" opacity="1.000000" stroke="none" 
	d="
M394.562134,695.540466 
	C394.904755,694.495056 395.437775,693.654053 396.375671,692.795288 
	C396.921539,692.907532 397.062469,693.037476 397.140320,693.473755 
	C397.044067,694.194336 397.010834,694.608582 396.977631,695.022766 
	C396.977631,695.022766 396.999298,694.998779 396.737762,695.054260 
	C396.036469,695.449890 395.596741,695.790039 395.156982,696.130249 
	C395.022186,696.001770 394.887360,695.873352 394.562134,695.540466 
z"/>
<path fill="#DF6F22" opacity="1.000000" stroke="none" 
	d="
M396.579285,692.572266 
	C396.911102,691.520020 397.444244,690.673035 398.376709,689.800049 
	C398.913239,689.899841 399.050507,690.025696 399.127380,690.459839 
	C399.037415,691.185364 399.007843,691.602417 398.978241,692.019531 
	C398.978241,692.019531 398.998840,691.998108 398.739563,692.056030 
	C398.054626,692.465149 397.628998,692.816223 397.203369,693.167358 
	C397.062469,693.037476 396.921539,692.907532 396.579285,692.572266 
z"/>
<path fill="#DF6F22" opacity="1.000000" stroke="none" 
	d="
M398.580078,689.575073 
	C398.917328,688.531494 399.450562,687.686829 400.385010,686.815186 
	C400.923828,686.913452 401.061462,687.038696 401.112793,687.457703 
	C400.413605,688.551514 399.800690,689.351501 399.187744,690.151489 
	C399.050507,690.025696 398.913239,689.899841 398.580078,689.575073 
z"/>
<path fill="#DF6F22" opacity="1.000000" stroke="none" 
	d="
M400.588440,686.591248 
	C400.923645,685.547302 401.456665,684.700378 402.391022,683.823608 
	C402.929413,683.916992 403.066498,684.040222 403.116333,684.457520 
	C402.419067,685.555664 401.809082,686.359802 401.199097,687.163940 
	C401.061462,687.038696 400.923828,686.913452 400.588440,686.591248 
z"/>
<path fill="#DF6F22" opacity="1.000000" stroke="none" 
	d="
M425.854584,648.867249 
	C426.349976,647.978027 426.845337,647.088806 427.771362,646.193298 
	C428.202026,646.187012 428.539062,646.500732 428.398071,646.768311 
	C427.676331,647.853271 427.095581,648.670593 426.349976,649.332581 
	C426.185120,649.177185 425.854584,648.867249 425.854584,648.867249 
z"/>
<path fill="#DF6F22" opacity="1.000000" stroke="none" 
	d="
M428.033569,646.030090 
	C428.360962,644.984802 428.856781,644.096436 429.785675,643.205139 
	C430.218719,643.202209 430.556396,643.516663 430.411804,643.781372 
	C429.691162,644.864319 429.115112,645.682495 428.539062,646.500732 
	C428.539062,646.500732 428.202026,646.187012 428.033569,646.030090 
z"/>
<path fill="#DF6F22" opacity="1.000000" stroke="none" 
	d="
M431.380066,640.440369 
	C431.916809,639.578674 432.453552,638.716980 433.379791,637.813599 
	C433.897827,637.889038 434.026367,638.006226 434.076324,638.421143 
	C433.380493,639.519348 432.763245,640.319946 431.959351,640.945068 
	C431.641815,640.659851 431.510956,640.550110 431.380066,640.440369 
z"/>
<path fill="#DF6F22" opacity="1.000000" stroke="none" 
	d="
M469.744873,583.758301 
	C470.242676,582.872192 470.740479,581.986084 471.497009,580.934448 
	C471.889679,580.894531 472.023590,581.020142 472.212036,581.597107 
	C471.689728,582.865295 471.112823,583.682129 470.337982,584.314026 
	C470.008331,584.005554 469.876617,583.881958 469.744873,583.758301 
z"/>
<path fill="#DF6F22" opacity="1.000000" stroke="none" 
	d="
M456.319885,603.427917 
	C456.868744,602.560547 457.417572,601.693237 458.369080,600.797485 
	C458.909454,600.896729 459.047211,601.024292 459.101044,601.447144 
	C458.397461,602.538452 457.777771,603.334473 456.954834,603.947388 
	C456.607697,603.652039 456.463776,603.539978 456.319885,603.427917 
z"/>
<path fill="#DF6F22" opacity="1.000000" stroke="none" 
	d="
M467.735168,586.748230 
	C468.234924,585.865784 468.734711,584.983337 469.489685,583.929565 
	C469.876617,583.881958 470.008331,584.005554 470.195312,584.580811 
	C469.667511,585.847473 469.084473,586.662354 468.309814,587.295044 
	C467.990509,586.991333 467.862823,586.869751 467.735168,586.748230 
z"/>
<path fill="#DF6F22" opacity="1.000000" stroke="none" 
	d="
M458.575287,600.567383 
	C458.911621,599.519165 459.444427,598.672729 460.380859,597.804443 
	C460.924500,597.911072 461.064575,598.039612 461.116852,598.461548 
	C460.414368,599.553894 459.799652,600.352905 459.184937,601.151917 
	C459.047211,601.024292 458.909454,600.896729 458.575287,600.567383 
z"/>
<path fill="#DF6F22" opacity="1.000000" stroke="none" 
	d="
M460.584106,597.579590 
	C460.917480,596.533325 461.451202,595.690002 462.395752,594.826111 
	C462.950989,594.934692 463.095398,595.063843 463.144135,595.483154 
	C462.433838,596.571655 461.819244,597.369934 461.204651,598.168213 
	C461.064575,598.039612 460.924500,597.911072 460.584106,597.579590 
z"/>
<path fill="#DF6F22" opacity="1.000000" stroke="none" 
	d="
M452.832489,608.846436 
	C453.326965,607.956299 453.821472,607.066101 454.759674,606.182190 
	C455.203400,606.188416 455.563812,606.523438 455.417908,606.787292 
	C454.697083,607.870178 454.122162,608.689148 453.368622,609.342651 
	C453.190002,609.177185 452.832489,608.846436 452.832489,608.846436 
z"/>
<path fill="#DF6F22" opacity="1.000000" stroke="none" 
	d="
M450.823334,611.836792 
	C451.316681,610.946106 451.810028,610.055481 452.567932,609.005615 
	C452.832489,608.846436 453.190002,609.177185 453.226562,609.609375 
	C452.681183,610.858032 452.099274,611.674438 451.343994,612.327209 
	C451.170624,612.163513 450.823334,611.836792 450.823334,611.836792 
z"/>
<path fill="#DF6F22" opacity="1.000000" stroke="none" 
	d="
M473.983704,577.986694 
	C474.134338,577.138794 474.485413,576.476196 475.037201,575.613953 
	C475.400818,575.530518 475.563721,575.646851 475.871765,576.238647 
	C475.539459,577.323792 475.062012,577.933533 474.584564,578.543213 
	C474.451080,578.419556 474.317596,578.295837 473.983704,577.986694 
z"/>
<path fill="#CAA79C" opacity="1.000000" stroke="none" 
	d="
M365.826233,745.327759 
	C365.452911,745.944763 364.859711,746.371033 363.876587,746.724976 
	C364.193237,746.147400 364.899811,745.642151 365.826233,745.327759 
z"/>
<path fill="#DF6F22" opacity="1.000000" stroke="none" 
	d="
M455.023254,606.020874 
	C455.204712,605.184753 455.566345,604.516174 456.123932,603.637695 
	C456.463776,603.539978 456.607697,603.652039 456.875183,604.229797 
	C456.520416,605.304749 456.042084,605.914062 455.563782,606.523438 
	C455.563812,606.523438 455.203400,606.188416 455.023254,606.020874 
z"/>
<path fill="#DF6F22" opacity="1.000000" stroke="none" 
	d="
M430.049988,643.044922 
	C430.248779,642.213440 430.616364,641.539307 431.182007,640.652771 
	C431.510956,640.550110 431.641815,640.659851 431.880737,641.227905 
	C431.511353,642.296326 431.033875,642.906494 430.556396,643.516663 
	C430.556396,643.516663 430.218719,643.202209 430.049988,643.044922 
z"/>
<path fill="#DF6F22" opacity="1.000000" stroke="none" 
	d="
M420.574463,656.586548 
	C420.831299,656.096558 421.088135,655.606567 421.750000,655.118530 
	C422.155029,655.120605 422.484344,655.397766 422.356201,655.644531 
	C421.900116,656.337402 421.572205,656.783447 421.077118,657.068481 
	C420.909973,656.907410 420.574463,656.586548 420.574463,656.586548 
z"/>
<path fill="#DF6F22" opacity="1.000000" stroke="none" 
	d="
M404.372314,680.494385 
	C404.659088,680.008911 404.945862,679.523438 405.644104,679.037659 
	C406.055542,679.037354 406.402313,679.338379 406.288696,679.593262 
	C405.847473,680.291443 405.519928,680.734741 404.992279,681.001221 
	C404.652222,680.714417 404.512268,680.604431 404.372314,680.494385 
z"/>
<path fill="#DF6F22" opacity="1.000000" stroke="none" 
	d="
M418.546631,659.566406 
	C418.807831,659.079407 419.069061,658.592407 419.732300,658.104309 
	C420.134338,658.103210 420.462677,658.380859 420.338684,658.630066 
	C419.884064,659.322571 419.553497,659.765869 419.054657,660.047607 
	C418.886383,659.886108 418.546600,659.566406 418.546631,659.566406 
z"/>
<path fill="#DF6F22" opacity="1.000000" stroke="none" 
	d="
M416.520447,662.549072 
	C416.786743,662.064331 417.053040,661.579590 417.725403,661.097656 
	C418.131470,661.100464 418.465851,661.383362 418.339905,661.631348 
	C417.881439,662.320435 417.548920,662.761658 417.043701,663.038086 
	C416.871033,662.873230 416.520447,662.549072 416.520447,662.549072 
z"/>
<path fill="#DF6F22" opacity="1.000000" stroke="none" 
	d="
M449.551636,613.570251 
	C449.814545,613.083679 450.077454,612.597046 450.581848,611.973633 
	C450.823334,611.836792 451.170624,612.163513 451.202148,612.557068 
	C450.910065,613.382629 450.586426,613.814697 450.085693,614.076843 
	C449.908600,613.906982 449.551636,613.570251 449.551636,613.570251 
z"/>
<path fill="#DF6F22" opacity="1.000000" stroke="none" 
	d="
M414.476349,665.525696 
	C414.754700,665.046692 415.033051,664.567688 415.713104,664.087524 
	C416.114777,664.086365 416.441162,664.363464 416.322021,664.615540 
	C415.871979,665.310608 415.541077,665.753601 415.029022,666.026306 
	C414.847900,665.856018 414.476349,665.525696 414.476349,665.525696 
z"/>
<path fill="#DF6F22" opacity="1.000000" stroke="none" 
	d="
M462.598877,594.602295 
	C462.667328,593.933838 462.943451,593.468567 463.639648,593.020996 
	C464.188049,593.148621 464.316345,593.258423 464.324097,593.616211 
	C463.882324,594.307129 463.561066,594.750061 463.239807,595.192993 
	C463.095398,595.063843 462.950989,594.934692 462.598877,594.602295 
z"/>
<path fill="#DF6F22" opacity="1.000000" stroke="none" 
	d="
M412.433899,668.508545 
	C412.720795,668.031677 413.007721,667.554871 413.698853,667.077148 
	C414.103088,667.076294 414.433990,667.358276 414.316284,667.611145 
	C413.867310,668.306519 413.536072,668.749023 413.015381,669.016968 
	C412.695251,668.731201 412.564575,668.619873 412.433899,668.508545 
z"/>
<path fill="#DF6F22" opacity="1.000000" stroke="none" 
	d="
M410.424255,671.505127 
	C410.709808,671.026611 410.995392,670.548157 411.687286,670.068970 
	C412.093597,670.068237 412.431396,670.356201 412.312195,670.608032 
	C411.861511,671.301758 411.530060,671.743652 411.008545,672.011475 
	C410.687103,671.726624 410.555695,671.615906 410.424255,671.505127 
z"/>
<path fill="#DF6F22" opacity="1.000000" stroke="none" 
	d="
M408.414429,674.502319 
	C408.698547,674.021301 408.982697,673.540344 409.674835,673.059448 
	C410.082855,673.059509 410.423096,673.350891 410.304138,673.602539 
	C409.855408,674.296814 409.525604,674.739380 409.004211,675.007690 
	C408.679901,674.723083 408.547150,674.612732 408.414429,674.502319 
z"/>
<path fill="#DF6F22" opacity="1.000000" stroke="none" 
	d="
M406.382202,677.495972 
	C406.671814,677.014709 406.961456,676.533447 407.662354,676.051880 
	C408.073639,676.051575 408.422211,676.350830 408.302979,676.602295 
	C407.853607,677.295593 407.523438,677.737366 406.995178,678.002808 
	C406.658844,677.716370 406.520538,677.606201 406.382202,677.495972 
z"/>
<path fill="#DF6F22" opacity="1.000000" stroke="none" 
	d="
M402.595337,683.599854 
	C402.676849,682.941589 402.955383,682.477295 403.646545,682.026001 
	C404.059113,682.038940 404.425934,682.354004 404.305359,682.602051 
	C403.857697,683.287964 403.530640,683.725708 403.203583,684.163513 
	C403.066498,684.040222 402.929413,683.916992 402.595337,683.599854 
z"/>
<path fill="#DF6F22" opacity="1.000000" stroke="none" 
	d="
M422.601929,653.609497 
	C422.853729,653.116272 423.105530,652.623047 423.761444,652.129639 
	C424.165527,652.129456 424.493622,652.404663 424.364197,652.650757 
	C423.906860,653.343201 423.578918,653.789612 423.088684,654.079407 
	C422.926392,653.922791 422.601929,653.609497 422.601929,653.609497 
z"/>
<path fill="#DF6F22" opacity="1.000000" stroke="none" 
	d="
M447.523987,616.552429 
	C447.789215,616.066711 448.054443,615.581055 448.731384,615.102539 
	C449.143127,615.109680 449.487610,615.400146 449.359894,615.647217 
	C448.904968,616.341064 448.577728,616.787964 448.070129,617.062988 
	C447.889740,616.891052 447.523987,616.552429 447.523987,616.552429 
z"/>
<path fill="#DF6F22" opacity="1.000000" stroke="none" 
	d="
M445.476624,619.526001 
	C445.755829,619.047791 446.035034,618.569519 446.726562,618.098755 
	C447.138916,618.106262 447.486023,618.399292 447.356323,618.645020 
	C446.895844,619.333679 446.565033,619.776550 446.047119,620.043579 
	C445.732239,619.753845 445.604431,619.639954 445.476624,619.526001 
z"/>
<path fill="#DF6F22" opacity="1.000000" stroke="none" 
	d="
M443.460175,622.518127 
	C443.739105,622.038147 444.018036,621.558228 444.706299,621.082520 
	C445.115662,621.086792 445.456573,621.376587 445.333191,621.626099 
	C444.880402,622.319580 444.550995,622.763550 444.033875,623.032227 
	C443.717499,622.743958 443.588837,622.631042 443.460175,622.518127 
z"/>
<path fill="#DF6F22" opacity="1.000000" stroke="none" 
	d="
M441.424255,625.505127 
	C441.711243,625.027710 441.998199,624.550293 442.695435,624.075562 
	C443.105652,624.078247 443.450470,624.371521 443.328003,624.621521 
	C442.872650,625.312134 442.539764,625.752747 442.014771,626.017334 
	C441.689880,625.729187 441.557068,625.617126 441.424255,625.505127 
z"/>
<path fill="#CAA79C" opacity="1.000000" stroke="none" 
	d="
M385.689636,744.285889 
	C385.443939,744.516235 384.870667,744.624207 384.146210,744.539612 
	C384.450714,744.285889 384.906403,744.224792 385.689636,744.285889 
z"/>
<path fill="#DF6F22" opacity="1.000000" stroke="none" 
	d="
M439.414490,628.502441 
	C439.698761,628.021545 439.983002,627.540588 440.674927,627.059448 
	C441.082581,627.059204 441.422028,627.349915 441.304260,627.602295 
	C440.855438,628.296326 440.524445,628.738037 440.002441,629.006042 
	C439.679138,628.722412 439.546814,628.612427 439.414490,628.502441 
z"/>
<path fill="#DF6F22" opacity="1.000000" stroke="none" 
	d="
M466.377197,588.493347 
	C466.668365,588.009277 466.959503,587.525208 467.492920,586.894653 
	C467.862823,586.869751 467.990509,586.991333 468.170044,587.526245 
	C467.898132,588.371216 467.574402,588.802734 467.037140,589.043335 
	C466.674805,588.732666 466.526001,588.613037 466.377197,588.493347 
z"/>
<path fill="#DF6F22" opacity="1.000000" stroke="none" 
	d="
M437.386047,631.496094 
	C437.675140,631.015015 437.964203,630.533936 438.659180,630.048706 
	C439.065063,630.044495 439.402802,630.334778 439.290131,630.590210 
	C438.846710,631.287903 438.515991,631.730103 437.990021,631.997803 
	C437.658539,631.714294 437.522308,631.605164 437.386047,631.496094 
z"/>
<path fill="#DF6F22" opacity="1.000000" stroke="none" 
	d="
M435.372314,634.494019 
	C435.659149,634.008789 435.946014,633.523621 436.641632,633.035400 
	C437.050385,633.032288 437.392578,633.328369 437.276611,633.581421 
	C436.828522,634.273438 436.496368,634.712402 435.971130,634.981140 
	C435.642822,634.705261 435.507568,634.599670 435.372314,634.494019 
z"/>
<path fill="#DF6F22" opacity="1.000000" stroke="none" 
	d="
M433.584991,637.586975 
	C433.678925,636.938538 433.957123,636.474854 434.635010,636.015137 
	C435.034729,636.018982 435.376465,636.316040 435.262451,636.568115 
	C434.817261,637.254639 434.486115,637.689026 434.154938,638.123474 
	C434.026367,638.006226 433.897827,637.889038 433.584991,637.586975 
z"/>
<path fill="#DF6F22" opacity="1.000000" stroke="none" 
	d="
M424.622559,650.627502 
	C424.870911,650.131287 425.119263,649.635071 425.611084,649.003052 
	C425.854584,648.867249 426.185120,649.177185 426.209991,649.563843 
	C425.910980,650.382812 425.587097,650.815186 425.102783,651.092773 
	C424.942383,650.937988 424.622559,650.627502 424.622559,650.627502 
z"/>
<path fill="#DF6F22" opacity="1.000000" stroke="none" 
	d="
M464.350220,591.490540 
	C464.640472,591.005615 464.930695,590.520630 465.651978,590.047058 
	C466.212738,590.168762 466.342468,590.279175 466.344879,590.636780 
	C465.890076,591.329102 465.562622,591.774353 465.019592,592.030396 
	C464.652740,591.724426 464.501495,591.607483 464.350220,591.490540 
z"/>
<path fill="#DF6F22" opacity="1.000000" stroke="none" 
	d="
M465.889008,589.892090 
	C465.744263,589.403442 465.864746,589.110474 466.216797,588.670044 
	C466.526001,588.613037 466.674805,588.732666 466.922729,589.245239 
	C466.855011,589.900635 466.671814,590.151123 466.472229,590.389648 
	C466.342468,590.279175 466.212738,590.168762 465.889008,589.892090 
z"/>
<path fill="#DF6F22" opacity="1.000000" stroke="none" 
	d="
M463.867859,592.873413 
	C463.727814,592.390869 463.848267,592.102234 464.193787,591.666443 
	C464.501495,591.607483 464.652740,591.724426 464.906982,592.234009 
	C464.844208,592.891113 464.655762,593.138245 464.444641,593.368164 
	C464.316345,593.258423 464.188049,593.148621 463.867859,592.873413 
z"/>
<path fill="#DF6F22" opacity="1.000000" stroke="none" 
	d="
M415.952454,663.946777 
	C415.909637,663.499084 416.029114,663.190918 416.334534,662.715942 
	C416.520447,662.549072 416.871033,662.873230 416.932678,663.242676 
	C416.833130,663.879639 416.648743,664.130066 416.441162,664.363464 
	C416.441162,664.363464 416.114777,664.086365 415.952454,663.946777 
z"/>
<path fill="#DF6F22" opacity="1.000000" stroke="none" 
	d="
M424.002502,651.990601 
	C423.963806,651.542419 424.088104,651.233093 424.417480,650.775635 
	C424.622559,650.627502 424.942383,650.937988 424.984924,651.291748 
	C424.859497,651.905640 424.681549,652.158691 424.493622,652.404663 
	C424.493622,652.404663 424.165527,652.129456 424.002502,651.990601 
z"/>
<path fill="#DF6F22" opacity="1.000000" stroke="none" 
	d="
M448.971771,614.963379 
	C448.922424,614.508728 449.044403,614.200378 449.359009,613.731079 
	C449.551636,613.570251 449.908600,613.906982 449.967957,614.276001 
	C449.858459,614.904602 449.678558,615.156311 449.487610,615.400146 
	C449.487610,615.400146 449.143127,615.109680 448.971771,614.963379 
z"/>
<path fill="#DF6F22" opacity="1.000000" stroke="none" 
	d="
M446.966248,617.958740 
	C446.912628,617.502625 447.031677,617.193970 447.337372,616.718872 
	C447.523987,616.552429 447.889740,616.891052 447.955200,617.264404 
	C447.855499,617.900757 447.677277,618.154602 447.486023,618.399292 
	C447.486023,618.399292 447.138916,618.106262 446.966248,617.958740 
z"/>
<path fill="#DF6F22" opacity="1.000000" stroke="none" 
	d="
M444.945984,620.941040 
	C444.809235,620.456970 444.925110,620.149902 445.300293,619.700073 
	C445.604431,619.639954 445.732239,619.753845 445.933899,620.246582 
	C445.843201,620.889832 445.659485,621.140259 445.456573,621.376587 
	C445.456573,621.376587 445.115662,621.086792 444.945984,620.941040 
z"/>
<path fill="#DF6F22" opacity="1.000000" stroke="none" 
	d="
M442.933960,623.930786 
	C442.795990,623.446411 442.912476,623.141174 443.285950,622.692871 
	C443.588837,622.631042 443.717499,622.743958 443.922852,623.236938 
	C443.838257,623.884216 443.655212,624.135742 443.450470,624.371521 
	C443.450470,624.371521 443.105652,624.078247 442.933960,623.930786 
z"/>
<path fill="#DF6F22" opacity="1.000000" stroke="none" 
	d="
M440.913513,626.913086 
	C440.781738,626.434998 440.896820,626.132812 441.257019,625.682678 
	C441.557068,625.617126 441.689880,625.729187 441.905334,626.223572 
	C441.827026,626.875000 441.638336,627.122986 441.422028,627.349915 
	C441.422028,627.349915 441.082581,627.059204 440.913513,626.913086 
z"/>
<path fill="#DF6F22" opacity="1.000000" stroke="none" 
	d="
M438.896851,629.898560 
	C438.770416,629.423523 438.888428,629.124573 439.248596,628.679077 
	C439.546814,628.612427 439.679138,628.722412 439.896698,629.215149 
	C439.822266,629.869751 439.629242,630.115417 439.402802,630.334778 
	C439.402802,630.334778 439.065063,630.044495 438.896851,629.898560 
z"/>
<path fill="#DF6F22" opacity="1.000000" stroke="none" 
	d="
M436.879852,632.883545 
	C436.756805,632.411560 436.875366,632.116882 437.225525,631.673462 
	C437.522308,631.605164 437.658539,631.714294 437.885864,632.208374 
	C437.819183,632.867920 437.624390,633.112915 437.392578,633.328369 
	C437.392578,633.328369 437.050385,633.032288 436.879852,632.883545 
z"/>
<path fill="#DF6F22" opacity="1.000000" stroke="none" 
	d="
M434.864441,635.869873 
	C434.744110,635.400391 434.864288,635.109070 435.213470,634.670349 
	C435.507568,634.599670 435.642822,634.705261 435.872314,635.195679 
	C435.812286,635.859680 435.615601,636.104858 435.376465,636.316040 
	C435.376465,636.316040 435.034729,636.018982 434.864441,635.869873 
z"/>
<path fill="#DF6F22" opacity="1.000000" stroke="none" 
	d="
M403.876343,681.880737 
	C403.743073,681.401672 403.863220,681.109924 404.213165,680.670837 
	C404.512268,680.604431 404.652222,680.714417 404.889862,681.212524 
	C404.832458,681.875671 404.645264,682.126770 404.425934,682.354004 
	C404.425934,682.354004 404.059113,682.038940 403.876343,681.880737 
z"/>
<path fill="#DF6F22" opacity="1.000000" stroke="none" 
	d="
M421.991455,654.980835 
	C421.951691,654.531982 422.075500,654.222900 422.400635,653.761658 
	C422.601929,653.609497 422.926392,653.922791 422.972961,654.280212 
	C422.854309,654.900269 422.675903,655.153687 422.484344,655.397766 
	C422.484344,655.397766 422.155029,655.120605 421.991455,654.980835 
z"/>
<path fill="#DF6F22" opacity="1.000000" stroke="none" 
	d="
M419.971100,657.963257 
	C419.931793,657.515137 420.055725,657.206909 420.377045,656.742615 
	C420.574463,656.586548 420.909973,656.907410 420.961365,657.269409 
	C420.846100,657.893494 420.662750,658.143311 420.462677,658.380859 
	C420.462677,658.380859 420.134338,658.103210 419.971100,657.963257 
z"/>
<path fill="#DF6F22" opacity="1.000000" stroke="none" 
	d="
M417.965210,660.958008 
	C417.920410,660.507019 418.041931,660.198547 418.355042,659.728271 
	C418.546600,659.566406 418.886383,659.886108 418.943726,660.252319 
	C418.841797,660.886841 418.663361,661.141785 418.465851,661.383362 
	C418.465851,661.383362 418.131470,661.100464 417.965210,660.958008 
z"/>
<path fill="#DF6F22" opacity="1.000000" stroke="none" 
	d="
M413.938416,666.934448 
	C413.807068,666.454407 413.923584,666.147827 414.299805,665.699219 
	C414.476349,665.525696 414.847900,665.856018 414.919128,666.232056 
	C414.830017,666.876770 414.644562,667.126831 414.433990,667.358276 
	C414.433990,667.358276 414.103088,667.076294 413.938416,666.934448 
z"/>
<path fill="#DF6F22" opacity="1.000000" stroke="none" 
	d="
M411.925415,669.923340 
	C411.791016,669.444336 411.904205,669.139771 412.265320,668.686646 
	C412.564575,668.619873 412.695251,668.731201 412.906860,669.223755 
	C412.828857,669.875000 412.643372,670.125427 412.431396,670.356201 
	C412.431396,670.356201 412.093597,670.068237 411.925415,669.923340 
z"/>
<path fill="#DF6F22" opacity="1.000000" stroke="none" 
	d="
M409.913422,672.912964 
	C409.781677,672.434753 409.897034,672.132690 410.257141,671.682739 
	C410.555695,671.615906 410.687103,671.726624 410.902161,672.219788 
	C410.827606,672.873840 410.640015,673.123413 410.423096,673.350891 
	C410.423096,673.350891 410.082855,673.059509 409.913422,672.912964 
z"/>
<path fill="#DF6F22" opacity="1.000000" stroke="none" 
	d="
M407.899994,675.901245 
	C407.768250,675.421753 407.886780,675.123108 408.248230,674.678589 
	C408.547150,674.612732 408.679901,674.723083 408.899353,675.217346 
	C408.828827,675.874207 408.640869,676.124084 408.422211,676.350830 
	C408.422211,676.350830 408.073639,676.051575 407.899994,675.901245 
z"/>
<path fill="#DF6F22" opacity="1.000000" stroke="none" 
	d="
M405.882690,678.886230 
	C405.756775,678.412231 405.874512,678.117676 406.222626,677.673706 
	C406.520538,677.606201 406.658844,677.716370 406.890625,678.213318 
	C406.824829,678.873535 406.630920,679.119629 406.402313,679.338379 
	C406.402313,679.338379 406.055542,679.037354 405.882690,678.886230 
z"/>
<path fill="#F0B68F" opacity="1.000000" stroke="none" 
	d="
M406.288696,679.593262 
	C406.630920,679.119629 406.824829,678.873535 407.088684,678.389648 
	C407.523438,677.737366 407.853607,677.295593 408.302979,676.602295 
	C408.640869,676.124084 408.828827,675.874207 409.090942,675.391602 
	C409.525604,674.739380 409.855408,674.296814 410.304138,673.602539 
	C410.640015,673.123413 410.827606,672.873840 411.092224,672.393921 
	C411.530060,671.743652 411.861511,671.301758 412.312195,670.608032 
	C412.643372,670.125427 412.828857,669.875000 413.096313,669.398193 
	C413.536072,668.749023 413.867310,668.306519 414.316284,667.611145 
	C414.644562,667.126831 414.830017,666.876770 415.100250,666.402344 
	C415.541077,665.753601 415.871979,665.310608 416.322021,664.615540 
	C416.648743,664.130066 416.833130,663.879639 417.105347,663.407532 
	C417.548920,662.761658 417.881439,662.320435 418.339905,661.631348 
	C418.663361,661.141785 418.841797,660.886841 419.112000,660.413879 
	C419.553497,659.765869 419.884064,659.322571 420.338684,658.630066 
	C420.662750,658.143311 420.846100,657.893494 421.128479,657.430420 
	C421.572205,656.783447 421.900116,656.337402 422.356201,655.644531 
	C422.675903,655.153687 422.854309,654.900269 423.135254,654.436829 
	C423.578918,653.789612 423.906860,653.343201 424.364197,652.650757 
	C424.681549,652.158691 424.859497,651.905640 425.145325,651.446533 
	C425.587097,650.815186 425.910980,650.382812 426.374847,649.719238 
	C427.095581,648.670593 427.676331,647.853271 428.398041,646.768311 
	C429.115112,645.682495 429.691162,644.864319 430.411804,643.781372 
	C431.033875,642.906494 431.511353,642.296326 432.067413,641.403320 
	C432.763245,640.319946 433.380493,639.519348 434.076324,638.421143 
	C434.486115,637.689026 434.817261,637.254639 435.262451,636.568115 
	C435.615601,636.104858 435.812286,635.859680 436.065369,635.365906 
	C436.496368,634.712402 436.828522,634.273438 437.276611,633.581421 
	C437.624390,633.112915 437.819183,632.867920 438.081055,632.382812 
	C438.515991,631.730103 438.846710,631.287903 439.290131,630.590210 
	C439.629242,630.115417 439.822266,629.869751 440.087646,629.388794 
	C440.524445,628.738037 440.855438,628.296326 441.304260,627.602295 
	C441.638336,627.122986 441.827026,626.875000 442.097473,626.399658 
	C442.539764,625.752747 442.872650,625.312134 443.328003,624.621521 
	C443.655212,624.135742 443.838257,623.884216 444.110565,623.412231 
	C444.550995,622.763550 444.880402,622.319580 445.333191,621.626099 
	C445.659485,621.140259 445.843201,620.889832 446.120972,620.422485 
	C446.565033,619.776550 446.895844,619.333679 447.356323,618.645020 
	C447.677277,618.154602 447.855499,617.900757 448.135559,617.436279 
	C448.577728,616.787964 448.904968,616.341064 449.359894,615.647217 
	C449.678558,615.156311 449.858459,614.904602 450.145081,614.445862 
	C450.586426,613.814697 450.910065,613.382629 451.375488,612.720764 
	C452.099274,611.674438 452.681183,610.858032 453.405151,609.774902 
	C454.122162,608.689148 454.697083,607.870178 455.417908,606.787292 
	C456.042084,605.914062 456.520416,605.304749 457.078369,604.412964 
	C457.777771,603.334473 458.397461,602.538452 459.101013,601.447144 
	C459.799652,600.352905 460.414368,599.553894 461.116882,598.461548 
	C461.819244,597.369934 462.433838,596.571655 463.144104,595.483154 
	C463.561066,594.750061 463.882324,594.307129 464.324097,593.616211 
	C464.655762,593.138245 464.844208,592.891113 465.122559,592.423096 
	C465.562622,591.774353 465.890076,591.329102 466.344879,590.636780 
	C466.671814,590.151123 466.855011,589.900635 467.136230,589.436157 
	C467.574402,588.802734 467.898132,588.371216 468.361664,587.708496 
	C469.084473,586.662354 469.667511,585.847473 470.393250,584.765747 
	C471.112823,583.682129 471.689728,582.865295 472.413269,581.785095 
	C473.135040,580.703125 473.710144,579.884521 474.434906,578.804565 
	C475.062012,577.933533 475.539459,577.323792 476.100433,576.433167 
	C476.801636,575.355286 477.419281,574.558289 478.123566,573.467224 
	C478.822723,572.372925 479.435272,571.572693 480.138336,570.480347 
	C480.840668,569.388489 481.452454,568.588928 482.159424,567.499390 
	C482.860718,566.405701 483.466827,565.601868 484.171448,564.509949 
	C489.714600,556.466980 495.189819,548.733459 500.598938,540.953918 
	C531.379028,496.685516 562.183167,452.433685 592.856934,408.091675 
	C596.273987,403.151855 601.020386,401.487732 606.438660,400.999268 
	C611.761169,400.519501 614.365051,403.203247 612.576416,408.201508 
	C610.016663,415.354401 607.359375,422.773560 603.124084,428.972504 
	C586.522095,453.272461 569.892639,477.598999 552.127075,501.047119 
	C530.432373,529.681091 507.622681,557.471741 485.227539,585.573242 
	C459.203735,618.227966 433.113251,650.829529 407.029999,683.436829 
	C404.662354,686.396667 402.136810,689.230225 399.331421,692.070984 
	C399.007843,691.602417 399.037415,691.185364 399.127380,690.459839 
	C399.800690,689.351501 400.413605,688.551514 401.112823,687.457703 
	C401.809082,686.359802 402.419067,685.555664 403.116333,684.457520 
	C403.530640,683.725708 403.857697,683.287964 404.305359,682.602051 
	C404.645264,682.126770 404.832458,681.875671 405.089966,681.389282 
	C405.519928,680.734741 405.847473,680.291443 406.288696,679.593262 
z"/>
<path fill="#F0B68F" opacity="1.000000" stroke="none" 
	d="
M397.140320,693.473755 
	C397.628998,692.816223 398.054626,692.465149 398.748047,692.043884 
	C398.578918,692.987915 398.141968,694.002136 397.341309,695.019531 
	C397.010834,694.608582 397.044067,694.194336 397.140320,693.473755 
z"/>
<path fill="#F0B68F" opacity="1.000000" stroke="none" 
	d="
M395.105194,696.444458 
	C395.596741,695.790039 396.036469,695.449890 396.747437,695.041321 
	C396.557739,695.934448 396.096832,696.895996 395.307190,697.942810 
	C395.003479,697.604919 395.028442,697.181763 395.105194,696.444458 
z"/>
<path fill="#F0B68F" opacity="1.000000" stroke="none" 
	d="
M393.142456,699.419312 
	C393.159943,699.154846 393.589081,699.059204 393.804535,699.015747 
	C393.853394,699.443542 393.686768,699.914795 393.520142,700.386108 
	C393.388428,700.151978 393.256714,699.917847 393.142456,699.419312 
z"/>
<path fill="#F0B68F" opacity="1.000000" stroke="none" 
	d="
M394.255920,698.992004 
	C394.149078,698.721680 394.327393,698.419189 394.765167,698.044800 
	C394.863434,698.301880 394.702271,698.630798 394.255920,698.992004 
z"/>
</svg>